<svg width="360" height="570" viewBox="0 0 360 570" fill="none" xmlns="http://www.w3.org/2000/svg">
<g clip-path="url(#clip0_1038_9012)">
<g clip-path="url(#clip1_1038_9012)">
<path opacity="0.1" fill-rule="evenodd" clip-rule="evenodd" d="M120.773 432.111C115.972 427.24 108.729 425.937 102.489 428.82L-90.0005 517.76L-89.6123 518.686L102.878 429.746C108.747 427.034 115.561 428.26 120.078 432.842L173.175 486.695C177.632 491.216 178.972 498.11 176.572 504.173L120.806 645.078L121.715 645.448L177.482 504.543C180.033 498.098 178.608 490.769 173.871 485.964L120.773 432.111ZM109.476 446.506C105.116 442.084 98.5312 440.921 92.8812 443.574L-86.6909 527.901L-86.2972 528.824L93.2749 444.498C98.5541 442.019 104.707 443.106 108.78 447.237L156.522 495.659C160.519 499.712 161.72 505.895 159.568 511.333L109.378 638.147L110.288 638.517L160.478 511.703C162.781 505.883 161.495 499.266 157.217 494.927L109.476 446.506ZM85.6429 458.022C90.731 455.674 96.6351 456.738 100.55 460.708L143.562 504.333C147.426 508.252 148.588 514.229 146.507 519.487L101.336 633.619L100.427 633.249L145.598 519.117C147.527 514.241 146.45 508.699 142.867 505.064L99.8544 461.44C96.2241 457.758 90.749 456.771 86.0306 458.948L-84.0001 537.412L-84.3878 536.486L85.6429 458.022ZM91.0936 475.059C87.5632 471.478 82.2415 470.513 77.6486 472.62L-80.821 545.31L-80.4353 546.238L78.0342 473.547C82.2578 471.61 87.1516 472.498 90.398 475.79L129.123 515.066C132.334 518.323 133.299 523.29 131.57 527.658L90.9161 630.378L91.8257 630.748L132.48 528.028C134.36 523.278 133.31 517.877 129.818 514.335L91.0936 475.059ZM70.7122 485.496C74.871 483.571 79.7004 484.438 82.9017 487.685L117.735 523.015C120.892 526.216 121.841 531.099 120.141 535.393L83.5526 627.841L82.6431 627.471L119.232 535.023C120.78 531.111 119.915 526.662 117.04 523.746L82.2062 488.416C79.2896 485.458 74.8898 484.668 71.101 486.422L-78.2822 555.572L-78.671 554.646L70.7122 485.496ZM72.8265 501.802C69.9497 498.885 65.617 498.09 61.8683 499.792L-76.2117 562.489L-75.8295 563.418L62.2506 500.721C65.6305 499.186 69.5371 499.903 72.1309 502.534L103.517 534.366C106.091 536.977 106.865 540.959 105.479 544.461L72.5489 627.664L73.4584 628.034L106.388 544.831C107.925 540.947 107.067 536.531 104.212 533.635L72.8265 501.802ZM53.8847 512.667C57.2684 511.152 61.166 511.879 63.757 514.506L92.0272 543.179C94.6107 545.799 95.3874 549.796 93.9963 553.311L64.3596 628.193L63.45 627.823L93.0867 552.941C94.3266 549.808 93.6343 546.246 91.3316 543.91L63.0615 515.238C60.7521 512.895 57.2781 512.248 54.2622 513.598L-73.2784 570.696L-73.6559 569.765L53.8847 512.667ZM55.6498 525.991C53.2984 523.606 49.7592 522.952 46.6917 524.335L-72.6217 578.12L-72.2419 579.05L47.0715 525.265C49.7707 524.048 52.8851 524.624 54.9542 526.722L80.3873 552.518C82.4457 554.605 83.0645 557.789 81.9561 560.59L55.2831 627.984L56.1927 628.354L82.8657 560.96C84.1253 557.777 83.422 554.159 81.0828 551.786L55.6498 525.991ZM37.2522 537.928C40.0342 536.666 43.2486 537.257 45.3832 539.422L68.2651 562.63C70.3844 564.779 71.0216 568.057 69.8804 570.941L45.8747 631.596L44.9651 631.226L68.9708 570.571C69.9608 568.069 69.4081 565.226 67.5696 563.361L44.6876 540.153C42.8359 538.275 40.0474 537.763 37.6339 538.857L-69.9458 587.638L-70.3276 586.709L37.2522 537.928ZM35.8699 551.84C33.9192 549.861 30.9757 549.334 28.4429 550.51L-68.0262 595.303L-67.6364 596.229L28.8328 551.436C30.9954 550.432 33.5087 550.881 35.1744 552.571L55.7395 573.429C57.3801 575.093 57.8733 577.631 56.9899 579.863L35.3848 634.452L36.2944 634.822L57.8995 580.233C58.9341 577.618 58.3565 574.646 56.435 572.697L35.8699 551.84ZM20.245 562.085C22.5416 561.022 25.2084 561.501 26.9762 563.294L45.4886 582.07C47.2319 583.838 47.756 586.535 46.8173 588.907L27.3727 638.037L26.4631 637.667L45.9078 588.537C46.6952 586.547 46.2556 584.285 44.793 582.801L26.2806 564.025C24.7976 562.521 22.5604 562.119 20.6336 563.011L-66.359 603.264L-66.7476 602.338L20.245 562.085ZM18.7185 573.956C17.0948 572.309 14.6382 571.885 12.5406 572.889L-64.2021 609.619L-63.8018 610.54L12.9409 573.809C14.6664 572.983 16.6873 573.333 18.023 574.687L34.6503 591.551C35.9525 592.872 36.344 594.887 35.6428 596.658L18.1427 640.876L19.0523 641.246L36.5524 597.028C37.4048 594.875 36.9289 592.426 35.3459 590.82L18.7185 573.956ZM5.3264 582.898C7.24025 581.96 9.49529 582.339 10.9829 583.848L25.926 599.004C27.3647 600.463 27.7973 602.689 27.0226 604.646L11.2724 644.442L10.3628 644.072L26.113 604.276C26.7365 602.701 26.3884 600.909 25.2304 599.735L10.2873 584.579C9.09006 583.365 7.27513 583.06 5.7348 583.815L-60.9937 616.502L-61.4021 615.585L5.3264 582.898ZM3.71472 593.053C2.35337 591.672 0.286575 591.332 -1.45946 592.202L-59.8709 621.31L-59.4564 622.224L-1.04501 593.116C0.326447 592.433 1.94986 592.699 3.01916 593.784L16.4534 607.409C17.4816 608.452 17.7907 610.043 17.2371 611.441L3.06192 647.257L3.9715 647.627L18.1466 611.811C18.8514 610.031 18.4579 608.006 17.149 606.678L3.71472 593.053Z" fill="#BCE9BD"/>
</g>
</g>
<defs>
<clipPath id="clip0_1038_9012">
<rect width="179" height="144" fill="white" transform="translate(0 426)"/>
</clipPath>
<clipPath id="clip1_1038_9012">
<rect width="179" height="188" fill="white" transform="translate(0 426)"/>
</clipPath>
</defs>
</svg>
