<svg width="56" height="56" fill="none" xmlns="http://www.w3.org/2000/svg"><path d="M13.797 8.757A23.352 23.352 0 0 1 27.178 4.57c5.903 0 11.505 2.18 15.845 6.154l1.153-1.075A24.931 24.931 0 0 0 27.178 3 24.897 24.897 0 0 0 12.9 7.466a.784.784 0 0 0-.199 1.092.788.788 0 0 0 1.096.199Zm29.181 1.989-3.958-.07-.033 1.706 4.312.073a2.538 2.538 0 0 0 1.823-.719 2.543 2.543 0 0 0 .78-1.794l.072-4.311-1.7-.029-.07 3.954m-3.162 37.068a23.352 23.352 0 0 1-13.38 4.186 23.353 23.353 0 0 1-15.846-6.154l-1.153 1.075a24.93 24.93 0 0 0 16.998 6.65 24.897 24.897 0 0 0 14.278-4.466.784.784 0 0 0 .199-1.092.785.785 0 0 0-1.096-.199Zm-29.185-1.993 3.958.07.033-1.706-4.312-.073a2.537 2.537 0 0 0-1.823.719 2.543 2.543 0 0 0-.78 1.794l-.072 4.311 1.7.029.07-3.954m-2.874-4.482a23.35 23.35 0 0 1-4.186-13.38c0-5.903 2.18-11.506 6.155-15.845L8.65 10.96A24.93 24.93 0 0 0 2 27.958a24.896 24.896 0 0 0 4.466 14.278.784.784 0 0 0 1.092.199.789.789 0 0 0 .199-1.096Zm1.989-29.185-.07 3.959 1.706.032.073-4.311a2.537 2.537 0 0 0-.719-1.823 2.543 2.543 0 0 0-1.794-.78l-4.311-.073-.029 1.701 3.954.07" fill="#7F7F7F"/><path d="m42.978 10.746-3.958-.07-.033 1.706 4.312.073a2.538 2.538 0 0 0 1.823-.719 2.543 2.543 0 0 0 .78-1.794l.072-4.311-1.7-.029-.07 3.954M11.857 44.631l3.958.07.033-1.706-4.312-.073a2.537 2.537 0 0 0-1.823.719 2.543 2.543 0 0 0-.78 1.794l-.072 4.311 1.7.029.07-3.954m-.885-33.667-.07 3.959 1.706.032.073-4.311a2.537 2.537 0 0 0-.719-1.823 2.543 2.543 0 0 0-1.794-.78l-4.311-.073-.029 1.701 3.954.07m5.241-2.172A23.352 23.352 0 0 1 27.178 4.57c5.903 0 11.505 2.18 15.845 6.154l1.153-1.075A24.931 24.931 0 0 0 27.178 3 24.897 24.897 0 0 0 12.9 7.466a.784.784 0 0 0-.199 1.092.788.788 0 0 0 1.096.199Zm27.245 37.867a23.352 23.352 0 0 1-13.38 4.186 23.353 23.353 0 0 1-15.846-6.154l-1.153 1.075a24.93 24.93 0 0 0 16.998 6.65 24.897 24.897 0 0 0 14.278-4.466.784.784 0 0 0 .199-1.092.785.785 0 0 0-1.096-.199ZM7.757 41.34a23.35 23.35 0 0 1-4.186-13.38c0-5.903 2.18-11.506 6.155-15.845L8.65 10.96A24.93 24.93 0 0 0 2 27.958a24.896 24.896 0 0 0 4.466 14.278.784.784 0 0 0 1.092.199.789.789 0 0 0 .199-1.096Z" stroke="#7F7F7F" stroke-width=".406" stroke-miterlimit="10"/><path d="M22.026 32.067v-5.83h-1.88c-.09 0-.138-.065-.138-.138v-1.161c0-.09.049-.138.138-.138h1.957v-1.287c0-.09.048-.138.138-.138h1.465c.077 0 .138.049.138.138v8.554c0 .089-.065.138-.138.138h-1.55c-.078 0-.13-.05-.13-.138ZM25.52 27.787c0-2.975 1.25-4.506 3.722-4.506 2.448 0 3.71 1.527 3.71 4.506 0 2.98-1.262 4.507-3.71 4.507-2.472 0-3.723-1.527-3.723-4.507Zm5.618 0c0-2.155-.58-3.077-1.892-3.077-1.352 0-1.904.897-1.904 3.077 0 2.18.556 3.078 1.904 3.078 1.312.004 1.892-.918 1.892-3.078ZM33.898 27.787c0-2.975 1.25-4.506 3.723-4.506 2.448 0 3.71 1.527 3.71 4.506 0 2.98-1.262 4.507-3.71 4.507-2.472 0-3.723-1.527-3.723-4.507Zm5.619 0c0-2.155-.58-3.077-1.892-3.077-1.352 0-1.904.897-1.904 3.077 0 2.18.556 3.078 1.904 3.078 1.312.004 1.892-.918 1.892-3.078ZM42.469 25.932c0-1.741.771-2.65 2.27-2.65 1.513 0 2.285.909 2.285 2.65 0 1.754-.784 2.663-2.286 2.663s-2.27-.921-2.27-2.663Zm3.154 0c0-1.149-.264-1.603-.885-1.603s-.869.454-.869 1.603c0 1.125.252 1.591.87 1.591.616 0 .884-.466.884-1.59Zm-.276 6.11 4.328-8.566c.024-.077.089-.101.162-.101h1.185c.102 0 .139.077.102.162l-4.328 8.566c-.024.077-.089.101-.162.101h-1.185c-.102 0-.143-.077-.102-.162Zm4.1-2.412c0-1.741.772-2.65 2.286-2.65 1.502 0 2.27.909 2.27 2.65 0 1.754-.784 2.664-2.27 2.664-1.502 0-2.286-.922-2.286-2.663Zm3.155 0c0-1.124-.264-1.575-.87-1.575-.628 0-.884.455-.884 1.576 0 1.136.252 1.59.885 1.59.605 0 .869-.466.869-1.59Z" fill="#7F7F7F"/><path d="M27.45 43.735c-8.842 0-16.036-7.194-16.036-16.035 0-8.842 7.194-16.036 16.036-16.036a15.99 15.99 0 0 1 13.413 7.246l-1.697 1.113a13.964 13.964 0 0 0-11.712-6.33c-7.722 0-14.006 6.285-14.006 14.007 0 7.72 6.284 14.005 14.006 14.005 4.86 0 9.443-2.578 11.968-6.73l1.733 1.055c-2.89 4.75-8.144 7.705-13.705 7.705Z" fill="#7F7F7F"/></svg>