<svg width="380" height="281" fill="none" xmlns="http://www.w3.org/2000/svg"><mask id="a" style="mask-type:alpha" maskUnits="userSpaceOnUse" x="0" y="0" width="380" height="281"><path d="M0 24C0 10.745 10.745 0 24 0h332c13.255 0 24 10.745 24 24v233c0 13.255-10.745 24-24 24H24c-13.255 0-24-10.745-24-24V24z" fill="#fff"/></mask><g mask="url(#a)"><path opacity=".5" fill-rule="evenodd" clip-rule="evenodd" d="M81.762 137.757c17.649 10.071 39.751 8.442 55.783-4.111L308.64-.332l-1.864-2.34-171.095 133.978c-15.062 11.794-35.827 13.324-52.408 3.863l-38.645-22.053c-16.36-9.335-25.405-27.527-22.925-46.106L40.906-76.84l-2.988-.382L18.715 66.63c-2.64 19.776 6.988 39.139 24.401 49.076l38.646 22.052zm8.546-19.045c15.977 9.117 35.991 7.614 50.472-3.79L301.097-11.334l-1.87-2.335L138.91 112.588c-13.511 10.64-32.184 12.042-47.09 3.536L56.254 95.828c-14.625-8.345-22.736-24.586-20.578-41.202l16.85-129.718-2.99-.371-16.85 129.718c-2.313 17.81 6.38 35.217 22.056 44.162l35.566 20.295zm54.683-19.838c-13.08 10.277-31.14 11.623-45.558 3.396L67.957 84.308c-14.233-8.122-22.087-23.962-19.893-40.12L64.04-73.497l2.987.388L51.051 44.575C49.02 59.535 56.29 74.2 69.469 81.72l31.476 17.961c13.349 7.617 30.069 6.371 42.178-3.144L296.695-24.13l1.868 2.336L144.991 98.874zm-38.513-13.518c13.002 7.42 29.284 6.226 41.102-3.014L291.014-29.803l-1.862-2.34L145.717 80c-10.847 8.481-25.792 9.577-37.727 2.767L79.686 66.617C67.88 59.88 61.366 46.743 63.183 33.34L77.515-72.374l-2.987-.387L60.196 32.954c-1.98 14.6 5.118 28.912 17.978 36.251l28.304 16.151zm43.584-16.043c-10.685 8.373-25.422 9.462-37.189 2.747L87.376 57.51c-11.602-6.62-18.019-19.52-16.265-32.696L83.7-69.742l2.988.38-12.588 94.555c-1.595 11.98 4.24 23.71 14.789 29.73l25.497 14.549c10.698 6.105 24.097 5.115 33.812-2.498L283.114-38.75l1.865 2.34L150.062 69.312zm-28.648-15.025c10.548 6.02 23.744 5.11 33.399-2.298l125.608-96.403-1.841-2.358-125.608 96.403c-8.685 6.665-20.558 7.483-30.046 2.068L99.362 38.254c-9.416-5.373-14.637-15.831-13.246-26.53l11.08-85.16-2.99-.371-11.079 85.16c-1.547 11.892 4.257 23.517 14.724 29.49l23.563 13.445zm35.382-16.812c-8.726 6.57-20.559 7.33-30.025 1.928l-21.784-12.43c-9.438-5.386-14.69-15.852-13.339-26.58l9.636-76.517 2.99.36L94.639.752c-1.201 9.538 3.469 18.843 11.86 23.632l21.783 12.43c8.416 4.803 18.937 4.127 26.695-1.714l116.571-87.76 1.819 2.374-116.571 87.761zm-21.441-11.831c8.621 4.92 19.404 4.193 27.313-1.84l109.18-83.287-1.834-2.363L160.835 21.44c-6.94 5.295-16.404 5.932-23.969 1.615L117.71 12.125c-7.526-4.294-11.7-12.652-10.59-21.202l8.958-68.981-2.99-.37-8.957 68.98c-1.265 9.744 3.491 19.268 12.067 24.162l19.157 10.93zm34.417-18.789c-7.166 5.463-16.934 6.12-24.744 1.663l-17.13-9.775c-7.753-4.424-12.063-13.025-10.942-21.837l7.814-61.412 2.99.363-7.813 61.412c-.97 7.62 2.758 15.06 9.463 18.886l17.13 9.775c6.754 3.854 15.202 3.286 21.399-1.438l97.529-74.35 1.833 2.364-97.529 74.35zM151.505-7.722c7.162 4.087 16.132 3.427 22.639-1.665l87.639-68.578-1.863-2.34-87.639 68.577c-5.537 4.334-13.17 4.895-19.265 1.417l-15.192-8.669c-6.003-3.425-9.328-10.095-8.434-16.914l7.313-55.756-2.989-.374-7.313 55.755c-1.051 8.014 2.857 15.852 9.912 19.878l15.192 8.669zm28.689-13.51c-5.905 4.612-14.037 5.206-20.531 1.5l-13.457-7.68c-6.404-3.653-9.951-10.77-8.994-18.044l6.554-49.82 2.989.375-6.554 49.82c-.8 6.08 2.164 12.027 7.516 15.081l13.458 7.68c5.427 3.097 12.223 2.6 17.158-1.254l78.551-61.348 1.861 2.342-78.551 61.348zM165.487-34.35c6.005 3.427 13.539 2.8 18.911-1.574l69.843-56.863-1.909-2.304-69.842 56.863c-4.401 3.583-10.572 4.096-15.492 1.29l-11.832-6.752c-4.798-2.739-7.436-8.086-6.676-13.53l6.389-45.749-2.985-.399-6.39 45.749c-.928 6.647 2.293 13.175 8.151 16.517l11.832 6.752zm22.019-13.63c-4.884 3.976-11.733 4.546-17.192 1.431l-11.308-6.453c-5.279-3.012-8.207-8.874-7.429-14.872l5.35-41.223 2.99.37-5.35 41.224a11.941 11.941 0 005.95 11.913l11.308 6.453a12.239 12.239 0 0013.772-1.146l60.699-49.422 1.909 2.304-60.699 49.421zm-8.936-9.527c5.005 2.856 11.288 2.307 15.734-1.376l50.874-42.146-1.929-2.287-50.874 42.145a10.861 10.861 0 01-12.294 1.076l-9.192-5.246a10.598 10.598 0 01-5.279-10.594l4.693-35.618-2.989-.375-4.693 35.617c-.72 5.466 1.945 10.813 6.757 13.56l9.192 5.244z" fill="#FFE7D5"/></g></svg>