<svg xmlns="http://www.w3.org/2000/svg" viewBox="0 0 360 360" width="360" height="360" preserveAspectRatio="xMidYMid slice" style="width: 100%; height: 100%; transform: translate3d(0px, 0px, 0px);"><defs><clipPath id="__lottie_element_2"><rect width="360" height="360" x="0" y="0"></rect></clipPath><clipPath id="__lottie_element_4"><path d="M0,0 L826,0 L826,826 L0,826z"></path></clipPath></defs><g clip-path="url(#__lottie_element_2)"><g clip-path="url(#__lottie_element_4)" transform="matrix(0.4303100109100342,0,0,0.4303100109100342,2.2819671630859375,2.2819671630859375)" opacity="1" style="display: block;"><g transform="matrix(26.816360473632812,0,0,26.816360473632812,131.52001953125,111.52001953125)" opacity="1" style="display: block;"><g opacity="1" transform="matrix(1,0,0,1,9.78499984741211,11.625)"><path stroke-linecap="round" stroke-linejoin="miter" fill-opacity="0" stroke-miterlimit="4" stroke="rgb(190,245,195)" stroke-opacity="1" stroke-width="1.5" d=" M-1.8200000524520874,-4 C-0.6069999933242798,-4 1.8200000524520874,-4 1.8200000524520874,-2 C1.8200000524520874,-0.6370000243186951 0.6919999718666077,-0.2029999941587448 -0.4090000092983246,-0.06499999761581421 C-0.9480000138282776,0.003000000026077032 -1.2330000400543213,0.6439999938011169 -0.8679999709129333,1.0449999570846558 C-0.8679999709129333,1.0449999570846558 1.8200000524520874,4 1.8200000524520874,4"></path></g><g opacity="1" transform="matrix(1,0,0,1,0,0)"><path stroke-linecap="round" stroke-linejoin="miter" fill-opacity="0" stroke-miterlimit="4" stroke="rgb(190,245,195)" stroke-opacity="1" stroke-width="1.5" d=" M7.965000152587891,9.625 C7.965000152587891,9.625 12.968000411987305,9.625 12.968000411987305,9.625"></path></g><g opacity="1" transform="matrix(1,0,0,1,0,0)"><path stroke-linecap="round" stroke-linejoin="miter" fill-opacity="0" stroke-miterlimit="4" stroke="rgb(190,245,195)" stroke-opacity="1" stroke-width="1.5" d=" M7.965000152587891,7.625 C7.965000152587891,7.625 12.968000411987305,7.625 12.968000411987305,7.625"></path></g></g><g transform="matrix(1,0,0,1,413,413)" opacity="1" style="display: block;"><g opacity="1" transform="matrix(1,0,0,1,0,0)"><path fill="rgb(19,72,53)" fill-opacity="1" d=" M-139.16900634765625,-135.9949951171875 C-92.197998046875,-88.75399780273438 134.5,139.25 134.5,139.25"></path><path stroke-linecap="round" stroke-linejoin="round" fill-opacity="0" stroke="rgb(19,72,53)" stroke-opacity="1" stroke-width="67" d=" M-139.16900634765625,-135.9949951171875 C-92.197998046875,-88.75399780273438 134.5,139.25 134.5,139.25"></path></g></g><g transform="matrix(-1,0,0,1,413,410)" opacity="1" style="display: block;"><g opacity="1" transform="matrix(0.9541299939155579,0,0,0.9541299939155579,0.2029999941587448,2.2339999675750732)"><path stroke-linecap="round" stroke-linejoin="round" fill-opacity="0" stroke="rgb(190,245,195)" stroke-opacity="1" stroke-width="56" d=" M-186.73199462890625,-107.74700164794922 C-149.43800354003906,-172.19000244140625 -79.74500274658203,-215.58599853515625 0,-215.58599853515625 C0,-215.58599853515625 0,-215.58599853515625 0,-215.58599853515625 C118.9819107055664,-215.58599853515625 215.58599853515625,-118.9819107055664 215.58599853515625,0 C215.58599853515625,118.9819107055664 118.9819107055664,215.58599853515625 0,215.58599853515625 C-118.9819107055664,215.58599853515625 -215.58599853515625,118.9819107055664 -215.58599853515625,0 C-215.58599853515625,-39.236000061035156 -205.08099365234375,-76.03900146484375 -186.73199462890625,-107.74700164794922"></path></g></g><g transform="matrix(-0.9198464155197144,0,0,1,414.9080810546875,410)" opacity="1" style="display: none;"><g opacity="1" transform="matrix(0.9541299939155579,0,0,0.9541299939155579,0.2029999941587448,2.2339999675750732)"><path stroke-linecap="butt" stroke-linejoin="miter" fill-opacity="0" stroke-miterlimit="4" stroke="rgb(190,245,195)" stroke-opacity="1" stroke-width="56" d=" M0,-215.58599853515625 C118.9819107055664,-215.58599853515625 215.58599853515625,-118.9819107055664 215.58599853515625,0 C215.58599853515625,118.9819107055664 118.9819107055664,215.58599853515625 0,215.58599853515625 C-118.9819107055664,215.58599853515625 -215.58599853515625,118.9819107055664 -215.58599853515625,0 C-215.58599853515625,-118.9819107055664 -118.9819107055664,-215.58599853515625 0,-215.58599853515625z"></path></g></g><g transform="matrix(1,0,0,1,413,410)" opacity="1" style="display: none;"><g opacity="1" transform="matrix(1,0,0,1,0,0)"><path fill="rgb(190,245,195)" fill-opacity="1" d=" M-4,-225.5 C-18.861000061035156,-225.1280059814453 118.51312255859375,-163.56956481933594 117.94512176513672,2.4294400215148926 C117.44512176513672,148.429443359375 30,195 14.75,195 C-12.87399959564209,195 54.75,189.75 54.75,189.75 C54.75,189.75 133.7191162109375,172.99644470214844 132.4451141357422,-41.070560455322266 C131.9451141357422,-125.070556640625 16,-226 -4,-225.5z"></path><path stroke-linecap="butt" stroke-linejoin="miter" fill-opacity="0" stroke-miterlimit="4" stroke="rgb(190,245,195)" stroke-opacity="1" stroke-width="10" d=" M-4,-225.5 C-18.861000061035156,-225.1280059814453 118.51312255859375,-163.56956481933594 117.94512176513672,2.4294400215148926 C117.44512176513672,148.429443359375 30,195 14.75,195 C-12.87399959564209,195 54.75,189.75 54.75,189.75 C54.75,189.75 133.7191162109375,172.99644470214844 132.4451141357422,-41.070560455322266 C131.9451141357422,-125.070556640625 16,-226 -4,-225.5z"></path></g></g><g transform="matrix(-1,0,0,1,435,410)" opacity="1" style="display: none;"><g opacity="1" transform="matrix(1,0,0,1,0,0)"><path fill="rgb(190,245,195)" fill-opacity="1" d=" M-3.945120096206665,-225.4803924560547 C-18.806119918823242,-225.1083984375 118.56800079345703,-163.54995727539062 118,2.449039936065674 C117.5,148.44903564453125 30.054880142211914,195.0196075439453 14.804880142211914,195.0196075439453 C-12.819120407104492,195.0196075439453 54.80487823486328,189.7696075439453 54.80487823486328,189.7696075439453 C54.80487823486328,189.7696075439453 133.7740020751953,173.0160369873047 132.5,-41.050960540771484 C132,-125.05095672607422 16.054880142211914,-225.9803924560547 -3.945120096206665,-225.4803924560547z"></path><path stroke-linecap="butt" stroke-linejoin="miter" fill-opacity="0" stroke-miterlimit="4" stroke="rgb(190,245,195)" stroke-opacity="1" stroke-width="10" d=" M-3.945120096206665,-225.4803924560547 C-18.806119918823242,-225.1083984375 118.56800079345703,-163.54995727539062 118,2.449039936065674 C117.5,148.44903564453125 30.054880142211914,195.0196075439453 14.804880142211914,195.0196075439453 C-12.819120407104492,195.0196075439453 54.80487823486328,189.7696075439453 54.80487823486328,189.7696075439453 C54.80487823486328,189.7696075439453 133.7740020751953,173.0160369873047 132.5,-41.050960540771484 C132,-125.05095672607422 16.054880142211914,-225.9803924560547 -3.945120096206665,-225.4803924560547z"></path></g></g><g transform="matrix(1,0,0,1,413,413)" opacity="1" style="display: block;"><g opacity="1" transform="matrix(1,0,0,1,0,0)"><path fill="rgb(19,72,53)" fill-opacity="1" d=" M-142.3679962158203,-139.33799743652344 C-94.41899871826172,-91.22200012207031 137,141 137,141"></path><path stroke-linecap="round" stroke-linejoin="round" fill-opacity="0" stroke="rgb(190,245,195)" stroke-opacity="1" stroke-width="46" d=" M-142.3679962158203,-139.33799743652344 C-94.41899871826172,-91.22200012207031 137,141 137,141"></path></g></g></g></g></svg>