<svg width="372" height="281" viewBox="0 0 372 281" fill="none" xmlns="http://www.w3.org/2000/svg">
<mask id="mask0_321_8016" style="mask-type:alpha" maskUnits="userSpaceOnUse" x="0" y="0" width="372" height="281">
<path d="M0 24C0 10.7452 10.7452 0 24 0H348C361.255 0 372 10.7452 372 24V257C372 270.255 361.255 281 348 281H24C10.7452 281 0 270.255 0 257V24Z" fill="white"/>
</mask>
<g mask="url(#mask0_321_8016)">
<path fill-rule="evenodd" clip-rule="evenodd" d="M81.7616 137.759C99.4104 147.83 121.513 146.201 137.544 133.648L308.639 -0.329705L306.776 -2.66952L135.68 131.308C120.619 143.102 99.854 144.632 83.2732 135.171L44.6276 113.118C28.268 103.783 19.2228 85.5912 21.7029 67.0124L40.906 -76.8386L37.9179 -77.2195L18.7149 66.6314C16.075 86.4069 25.7027 105.77 43.1161 115.707L81.7616 137.759ZM90.3083 118.715C106.285 127.831 126.299 126.329 140.78 114.924L301.097 -11.3318L299.227 -13.6664L138.909 112.59C125.399 123.23 106.726 124.632 91.8198 116.126L56.2533 95.8303C41.6285 87.4849 33.5174 71.2441 35.6758 54.6281L52.526 -75.0902L49.5365 -75.4608L32.6864 54.2576C30.373 72.0669 39.0667 89.4741 54.7417 98.4189L90.3083 118.715ZM144.991 98.8762C131.911 109.153 113.851 110.5 99.4328 102.272L67.9568 84.3106C53.7237 76.1886 45.8697 60.3486 48.0634 44.1893L64.0398 -73.4936L67.027 -73.1061L51.0506 44.5768C49.0196 59.5374 56.291 74.2024 69.4684 81.7219L100.944 99.6833C114.293 107.301 131.013 106.054 143.123 96.5395L296.695 -24.1282L298.563 -21.7915L144.991 98.8762ZM106.478 85.3586C119.48 92.778 135.762 91.584 147.579 82.3445L291.014 -29.8004L289.152 -32.1417L145.717 80.0033C134.87 88.4844 119.924 89.5804 107.99 82.77L79.6855 66.6186C67.8806 59.8823 61.3654 46.7454 63.1826 33.3426L77.5151 -72.3717L74.5279 -72.7587L60.1953 32.9557C58.2157 47.557 65.3134 61.8685 78.174 69.2072L106.478 85.3586ZM150.062 69.315C139.376 77.6883 124.64 78.777 112.873 72.0625L87.3761 57.513C75.7737 50.8922 69.3568 37.9925 71.111 24.8158L83.6986 -69.7399L86.6868 -69.36L74.0992 25.1956C72.5043 37.1761 78.3386 48.9047 88.8876 54.9244L114.385 69.4739C125.083 75.5789 138.482 74.5889 148.197 66.9759L283.114 -38.7479L284.978 -36.4087L150.062 69.315ZM121.414 54.2907C131.961 60.3094 145.158 59.401 154.812 51.9917L280.42 -44.4105L278.58 -46.7684L152.972 49.6338C144.287 56.2995 132.414 57.1167 122.925 51.7021L99.3623 38.2561C89.9459 32.8828 84.7244 22.4251 86.1162 11.727L97.1955 -73.4338L94.2062 -73.805L83.1268 11.3558C81.5797 23.2475 87.3838 34.8719 97.8507 40.8447L121.414 54.2907ZM156.795 37.4784C148.069 44.0479 136.236 44.8075 126.771 39.406L104.987 26.9755C95.5492 21.5899 90.2968 11.1244 91.6478 0.396383L101.283 -76.1208L104.274 -75.7617L94.6387 0.755477C93.4376 10.2937 98.1074 19.5986 106.499 24.3869L128.282 36.8174C136.698 41.6199 147.219 40.9445 154.977 35.1036L271.548 -52.6577L273.366 -50.2828L156.795 37.4784ZM135.354 25.647C143.976 30.5666 154.759 29.84 162.668 23.8068L271.847 -59.4797L270.014 -61.8429L160.835 21.4436C153.894 26.7379 144.431 27.3755 136.866 23.0584L117.71 12.1272C110.184 7.83273 106.01 -0.524533 107.12 -9.07502L116.077 -78.0563L113.088 -78.4267L104.131 -9.44546C102.865 0.298363 107.622 9.82199 116.198 14.7158L135.354 25.647ZM169.772 6.85857C162.606 12.3215 152.837 12.978 145.028 8.52159L127.898 -1.25341C120.145 -5.67759 115.835 -14.279 116.956 -23.0904L124.769 -84.5025L127.76 -84.1396L119.946 -22.7276C118.977 -15.107 122.704 -7.66823 129.409 -3.84202L146.539 5.93298C153.293 9.78706 161.741 9.21928 167.939 4.49473L265.468 -69.8544L267.301 -67.4906L169.772 6.85857ZM151.504 -7.72014C158.667 -3.63301 167.636 -4.29259 174.144 -9.38498L261.783 -77.9631L259.92 -80.3035L172.281 -11.7254C166.743 -7.3921 159.111 -6.83082 153.016 -10.3088L137.824 -18.9777C131.821 -22.4033 128.495 -29.0728 129.39 -35.8921L136.703 -91.6473L133.714 -92.0215L126.401 -36.2663C125.35 -28.2525 129.258 -20.4147 136.313 -16.3891L151.504 -7.72014ZM180.194 -21.2296C174.289 -16.618 166.157 -16.0238 159.663 -19.7295L146.206 -27.4089C139.802 -31.0632 136.255 -38.179 137.212 -45.4533L143.766 -95.2742L146.755 -94.8988L140.201 -45.078C139.401 -38.9985 142.365 -33.0516 147.717 -29.9975L161.175 -22.3182C166.602 -19.2211 173.398 -19.7177 178.333 -23.5718L256.884 -84.9196L258.745 -82.5774L180.194 -21.2296ZM165.487 -34.3478C171.492 -30.921 179.026 -31.5479 184.398 -35.9216L254.241 -92.7849L252.332 -95.0889L182.489 -38.2256C178.089 -34.6429 171.917 -34.1293 166.998 -36.9365L155.166 -43.6883C150.368 -46.4263 147.729 -51.7738 148.49 -57.2185L154.879 -102.967L151.893 -103.366L145.504 -57.6172C144.576 -50.9704 147.797 -44.4422 153.655 -41.0997L165.487 -34.3478ZM187.505 -47.9774C182.622 -44.0013 175.773 -43.4312 170.314 -46.5465L159.005 -52.9994C153.727 -56.0117 150.799 -61.8736 151.577 -67.8713L156.927 -109.095L159.917 -108.725L154.566 -67.501C153.943 -62.6966 156.288 -58.001 160.517 -55.588L171.825 -49.1351C176.198 -46.6397 181.685 -47.0963 185.596 -50.2813L246.296 -99.7031L248.205 -97.3992L187.505 -47.9774ZM178.569 -57.5044C183.574 -54.6484 189.858 -55.1982 194.304 -58.881L245.178 -101.027L243.249 -103.314L192.375 -61.1686C188.901 -58.291 183.992 -57.8614 180.081 -60.093L170.889 -65.3383C167.129 -67.4838 165.047 -71.6618 165.61 -75.9324L170.302 -111.55L167.314 -111.926L162.621 -76.3083C161.901 -70.8427 164.565 -65.4955 169.377 -62.7497L178.569 -57.5044Z" fill="#DFF9EF"/>
</g>
</svg>
