<svg width="1440" height="632" viewBox="0 0 1440 632" fill="none" xmlns="http://www.w3.org/2000/svg">
<mask id="mask0_1038_8859" style="mask-type:alpha" maskUnits="userSpaceOnUse" x="0" y="0" width="1440" height="632">
<rect width="1440" height="632" fill="#144835"/>
</mask>
<g mask="url(#mask0_1038_8859)">
<path opacity="0.22" fill-rule="evenodd" clip-rule="evenodd" d="M1215.11 618.687C1221.01 622.148 1228.34 621.533 1233.62 617.133L1763.61 175.574L1762.99 174.78L1233.01 616.339C1228.04 620.477 1221.14 621.057 1215.59 617.8L970.397 473.917C964.922 470.705 961.844 464.392 962.592 457.914L1019.98 -38.6557L1019.01 -38.7776L961.618 457.792C960.822 464.679 964.095 471.389 969.914 474.804L1215.11 618.687ZM1235.78 564.697C1241.14 567.839 1247.8 567.259 1252.57 563.233L1745.32 147.497L1744.7 146.707L1251.95 562.443C1247.49 566.204 1241.27 566.747 1236.26 563.81L1015.65 434.349C1010.74 431.467 1007.97 425.806 1008.65 419.997L1060.3 -26.9166L1059.32 -27.0385L1007.67 419.875C1006.95 426.092 1009.91 432.151 1015.16 435.235L1235.78 564.697ZM1264.45 511.925C1260.15 515.51 1254.17 516.011 1249.36 513.189L1050.75 396.641C1046 393.855 1043.33 388.383 1043.98 382.766L1090.47 -19.4556L1091.44 -19.3337L1044.96 382.888C1044.35 388.096 1046.83 393.172 1051.23 395.755L1249.84 512.302C1254.3 514.919 1259.84 514.455 1263.84 511.131L1730.74 122.514L1731.35 123.309L1264.45 511.925ZM1264.71 460.965C1269.05 463.51 1274.44 463.065 1278.33 459.841L1713.36 99.4288L1712.74 98.6328L1277.72 459.045C1274.14 462.01 1269.18 462.419 1265.19 460.078L1086.43 355.176C1082.48 352.861 1080.27 348.313 1080.8 343.646L1122.64 -18.3534L1121.67 -18.4753L1079.83 343.524C1079.24 348.599 1081.66 353.545 1085.94 356.062L1264.71 460.965ZM1290.22 414.115C1286.7 417.051 1281.81 417.463 1277.87 415.155L1117.01 320.756C1113.13 318.481 1110.95 314.01 1111.48 309.422L1149.13 -16.3777L1150.11 -16.2558L1112.45 309.544C1111.97 313.724 1113.96 317.797 1117.49 319.87L1278.36 414.269C1281.94 416.371 1286.39 415.996 1289.6 413.321L1698.62 72.0578L1699.24 72.8516L1290.22 414.115ZM1295.54 363.283C1299.08 365.357 1303.47 365.003 1306.65 362.389L1685.4 51.0448L1684.79 50.2464L1306.04 361.59C1303.17 363.947 1299.21 364.266 1296.03 362.396L1151.2 277.412C1148.04 275.556 1146.26 271.91 1146.69 268.169L1180.58 -25.0508L1179.61 -25.1728L1145.72 268.047C1145.24 272.197 1147.21 276.24 1150.72 278.298L1295.54 363.283ZM1321.5 315.844C1318.62 318.183 1314.67 318.49 1311.49 316.623L1181.12 240.12C1177.94 238.257 1176.16 234.598 1176.59 230.843L1207.09 -33.0546L1208.07 -32.9327L1177.57 230.965C1177.18 234.312 1178.77 237.573 1181.6 239.233L1311.97 315.736C1314.81 317.401 1318.33 317.127 1320.89 315.042L1671.13 30.2372L1671.73 31.0389L1321.5 315.844ZM1325.71 274.568C1328.6 276.263 1332.19 275.979 1334.79 273.85L1661.8 6.52641L1661.19 5.7263L1334.18 273.05C1331.89 274.924 1328.74 275.173 1326.19 273.682L1208.87 204.837C1206.34 203.353 1204.92 200.437 1205.27 197.445L1232.72 -40.0625L1231.74 -40.1845L1204.29 197.323C1203.9 200.724 1205.52 204.037 1208.39 205.723L1325.71 274.568ZM1353.24 224.249C1350.88 226.187 1347.63 226.449 1345 224.91L1239.42 162.955C1236.82 161.427 1235.36 158.426 1235.71 155.345L1260.42 -58.4119L1261.39 -58.29L1236.69 155.467C1236.38 158.139 1237.65 160.743 1239.91 162.069L1345.49 224.024C1347.76 225.359 1350.59 225.132 1352.63 223.45L1647.24 -18.4694L1647.85 -17.6706L1353.24 224.249ZM1362.98 179.029C1365.38 180.435 1368.36 180.182 1370.5 178.391L1633.87 -41.8717L1633.26 -42.6648L1369.89 177.598C1368.06 179.127 1365.51 179.343 1363.47 178.143L1268.48 122.404C1266.47 121.221 1265.33 118.898 1265.61 116.513L1287.84 -75.8686L1286.87 -75.9905L1264.63 116.391C1264.31 119.184 1265.64 121.905 1268 123.29L1362.98 179.029ZM1386.68 135.992C1384.73 137.613 1382.03 137.841 1379.86 136.566L1294.37 86.3986C1292.23 85.1419 1291.03 82.6728 1291.32 80.1389L1311.33 -93.0045L1312.3 -92.8825L1292.29 80.2608C1292.05 82.3866 1293.06 84.458 1294.85 85.5123L1380.35 135.68C1382.17 136.749 1384.43 136.558 1386.06 135.199L1623.66 -62.9773L1624.27 -62.1834L1386.68 135.992ZM1395.63 97.1336C1397.63 98.3041 1400.11 98.0782 1401.87 96.5656L1610.62 -82.2007L1609.99 -82.9863L1401.25 95.78C1399.8 97.0243 1397.75 97.2101 1396.11 96.2472L1319.21 51.1206C1317.61 50.1819 1316.71 48.3375 1316.93 46.4447L1334.94 -109.384L1333.97 -109.506L1315.96 46.3227C1315.69 48.6237 1316.79 50.8658 1318.73 52.007L1395.63 97.1336ZM1416.18 59.9339C1414.58 61.3348 1412.3 61.5526 1410.47 60.4803L1341.29 19.8818C1339.52 18.8447 1338.53 16.8069 1338.77 14.7156L1354.98 -125.53L1355.95 -125.409L1339.74 14.8376C1339.55 16.5207 1340.35 18.1608 1341.77 18.9955L1410.96 59.594C1412.43 60.457 1414.26 60.2817 1415.55 59.1542L1596.63 -98.8005L1597.26 -98.0208L1416.18 59.9339ZM1424.49 26.313C1426.17 27.2943 1428.25 27.0875 1429.71 25.7951L1587.95 -114.146L1587.32 -114.921L1429.08 25.0199C1427.93 26.035 1426.29 26.1975 1424.98 25.4266L1362.73 -11.1015C1361.47 -11.8426 1360.76 -13.2988 1360.93 -14.7932L1375.52 -141.015L1374.54 -141.137L1359.95 -14.9152C1359.73 -13.0126 1360.64 -11.1587 1362.25 -10.2152L1424.49 26.313Z" fill="#BCE9BD"/>
</g>
</svg>
