<svg width="57" height="41" fill="none" xmlns="http://www.w3.org/2000/svg"><path d="M15.187 5.832A19.952 19.952 0 0 1 28.505 0h1.671a19.971 19.971 0 0 1 12.709 5.252l1.183 1.178a19.927 19.927 0 0 1 5.304 13.561C49.372 31.041 40.407 40 29.34 40c-1.84 0-3.626-.25-5.315-.714.128-.545.209-1.096.255-1.665 1.608.464 3.308.713 5.06.713 10.127 0 18.361-8.228 18.361-18.343 0-10.114-8.234-18.343-18.36-18.343-5.06 0-9.645 2.054-12.97 5.374a18.264 18.264 0 0 0-5.391 12.975c0 1.747.25 3.441.708 5.049-.569.046-1.126.133-1.666.26a20.01 20.01 0 0 1-.713-5.309 19.961 19.961 0 0 1 5.878-14.165Z" fill="#217858"/><path d="M19.852 17.432c0-2.814 1.241-4.277 3.667-4.277 2.443 0 3.69 1.468 3.69 4.277 0 2.832-1.264 4.3-3.69 4.3-2.42-.006-3.667-1.491-3.667-4.3Zm5.095 0c0-1.857-.43-2.588-1.428-2.588s-1.404.731-1.404 2.588c0 1.81.406 2.565 1.404 2.565.998 0 1.428-.754 1.428-2.565Zm-.447 9.86 6.986-13.835c.041-.122.146-.163.267-.163h1.915c.163 0 .227.122.163.268l-6.987 13.834c-.04.122-.145.162-.267.162h-1.915c-.162-.006-.226-.127-.162-.267Zm6.62-3.895c0-2.814 1.243-4.276 3.686-4.276 2.425 0 3.667 1.468 3.667 4.277 0 2.831-1.265 4.3-3.667 4.3-2.42 0-3.685-1.486-3.685-4.3Zm5.096 0c0-1.81-.43-2.547-1.404-2.547-1.022 0-1.428.731-1.428 2.547 0 1.834.406 2.566 1.428 2.566.974.005 1.404-.75 1.404-2.566Z" fill="#217858"/><path d="M21.032 39.803H2.816A1.815 1.815 0 0 1 1 37.987v-9.72c0-1.004.812-1.817 1.816-1.817h18.216c1.004 0 1.816.813 1.816 1.817v9.72a1.815 1.815 0 0 1-1.816 1.816ZM2.816 27.297a.97.97 0 0 0-.969.97v9.72c0 .533.435.969.97.969h18.215a.97.97 0 0 0 .969-.97v-9.72a.97.97 0 0 0-.97-.969H2.817Z" fill="#217858" stroke="#217858" stroke-width=".58" stroke-miterlimit="10"/><path d="M19.79 37.25h-3.413a.582.582 0 0 1-.58-.58v-2.014c0-.32.261-.58.58-.58h3.412c.32 0 .58.26.58.58v2.013c0 .32-.26.58-.58.58Zm-3.32-.68h3.22v-1.822h-3.22v1.823Z" fill="#217858" stroke="#217858" stroke-width=".29" stroke-miterlimit="10"/><path d="M21.652 29.154H1.754v.65h19.898v-.65ZM22.16 31.504H1.933v.65H22.16v-.65Z" fill="#217858" stroke="#217858" stroke-width=".58" stroke-miterlimit="10"/></svg>