<svg width="36" height="30" fill="none" xmlns="http://www.w3.org/2000/svg"><path d="M14.979 7.117c-.61 0-1.15.275-1.525.703l-2.587-1.295a2.035 2.035 0 0 0-1.985-2.458c-1.12 0-2.033.912-2.033 2.032 0 .456.157.874.411 1.213l-3.647 4.56a2.018 2.018 0 0 0-.83-.18c-1.121 0-2.033.911-2.033 2.032 0 1.12.912 2.032 2.032 2.032s2.033-.912 2.033-2.032a2.02 2.02 0 0 0-.411-1.213l3.648-4.56c.253.114.533.18.83.18.61 0 1.15-.275 1.525-.703l2.587 1.295a2.035 2.035 0 0 0 1.985 2.458c1.12 0 2.032-.911 2.032-2.032 0-.432-.137-.83-.367-1.161l3.544-4.136c.269.133.57.213.89.213.77 0 1.43-.435 1.777-1.065l2.29.572a2.034 2.034 0 0 0 2.03 2.018 2.04 2.04 0 0 0 2.033-2.033c0-1.12-.912-2.032-2.032-2.032a2.03 2.03 0 0 0-1.777 1.064l-2.29-.572A2.034 2.034 0 0 0 21.078 0a2.039 2.039 0 0 0-2.033 2.032c0 .433.137.833.368 1.162L15.869 7.33a2.034 2.034 0 0 0-.89-.213ZM2.782 14.74a1.018 1.018 0 1 1 .002-2.036 1.018 1.018 0 0 1-.002 2.036ZM8.88 7.117a1.018 1.018 0 1 1 0-2.036 1.018 1.018 0 0 1 0 2.036Zm6.099 3.05a1.018 1.018 0 1 1 .001-2.036 1.018 1.018 0 0 1-.001 2.035Zm12.197-7.623a1.018 1.018 0 1 1-.002 2.036 1.018 1.018 0 0 1 .002-2.036Zm-6.1-1.525a1.018 1.018 0 1 1-.001 2.036 1.018 1.018 0 0 1 .001-2.036Z" fill="#797C9E"/><path d="M11.072 12.586a5.882 5.882 0 0 0-4.747 9.355L0 28.267l.895.894 6.286-6.286a5.882 5.882 0 1 0 3.89-10.289Zm0 10.498a4.622 4.622 0 0 1-4.616-4.616 4.621 4.621 0 0 1 4.616-4.615 4.621 4.621 0 0 1 4.615 4.615 4.62 4.62 0 0 1-4.615 4.616Z" fill="#797C9E"/><path d="M26.736 28.754h-1.1V6.146a.606.606 0 0 0-.607-.607h-5.057a.606.606 0 0 0-.606.607V28.75h-2.222v-6.957a7.045 7.045 0 0 1-1.213 1.598v5.36h-3.843v-3.416c-.366.058-.74.097-1.123.097-.03 0-.06-.004-.09-.004V30l15.861-.037a.606.606 0 1 0 0-1.21Zm-2.316 0h-3.843V6.752h3.843v22.002Z" fill="#797C9E"/></svg>