<svg width="132" height="132" viewBox="0 0 132 132" fill="none" xmlns="http://www.w3.org/2000/svg">
<rect width="132" height="132" rx="66" fill="#F1D9FF"/>
<path d="M88.5 48.5H80.425C79.7952 48.498 79.1878 48.7338 78.7243 49.1602C78.2609 49.5866 77.9754 50.1722 77.925 50.8L76.95 63.3C76.9134 63.9682 76.8045 64.6304 76.625 65.275C76.5136 65.6558 76.4944 66.0577 76.5691 66.4474C76.6437 66.8371 76.8101 67.2035 77.0544 67.5161C77.2986 67.8288 77.6138 68.0789 77.9739 68.2456C78.334 68.4123 78.7285 68.491 79.125 68.475H79.25C82.4292 68.2839 85.4156 66.8865 87.5993 64.568C89.783 62.2495 90.9994 59.185 91 56V51C91 50.337 90.7366 49.7011 90.2678 49.2322C89.7989 48.7634 89.163 48.5 88.5 48.5ZM86 56C85.9964 57.3568 85.6248 58.6872 84.9248 59.8495C84.2248 61.0117 83.2226 61.9623 82.025 62.6L82.75 53.5H86V56ZM55 62.8L54.075 50.8C54.0246 50.1722 53.7392 49.5866 53.2757 49.1602C52.8122 48.7338 52.2048 48.498 51.575 48.5H43.5C42.837 48.5 42.2011 48.7634 41.7322 49.2322C41.2634 49.7011 41 50.337 41 51V56C40.9972 59.2262 42.2418 62.3286 44.4736 64.6583C46.7055 66.988 49.7516 68.3645 52.975 68.5C53.3568 68.4991 53.7333 68.4107 54.0757 68.2417C54.418 68.0727 54.7171 67.8275 54.95 67.525C55.195 67.2109 55.3613 66.8429 55.4352 66.4515C55.5092 66.0602 55.4885 65.6568 55.375 65.275C55.1453 64.4693 55.0192 63.6376 55 62.8ZM46 56V53.5H49.25L49.975 62.625C48.7737 61.9853 47.769 61.0308 47.0688 59.8637C46.3686 58.6967 45.9991 57.361 46 56ZM76 88.1C76.0572 88.4591 76.0353 88.8262 75.936 89.176C75.8367 89.5257 75.6623 89.8496 75.425 90.125C75.1876 90.4027 74.8922 90.6249 74.5596 90.7761C74.227 90.9272 73.8653 91.0037 73.5 91H58.5C58.1389 91 57.7821 90.9218 57.4541 90.7708C57.1261 90.6197 56.8347 90.3994 56.6 90.125C56.3632 89.8436 56.1876 89.5161 56.0843 89.1631C55.981 88.8102 55.9523 88.4396 56 88.075L58.275 74.525C58.3384 74.1451 58.4887 73.785 58.7142 73.4728C58.9397 73.1605 59.2343 72.9046 59.575 72.725C59.9174 72.5572 60.2937 72.47 60.675 72.47C61.0563 72.47 61.4326 72.5572 61.775 72.725C62.7293 73.1403 63.7406 73.41 64.775 73.525C66.6407 73.7316 68.528 73.4472 70.25 72.7C70.5891 72.5362 70.9609 72.4511 71.3375 72.4511C71.7141 72.4511 72.0859 72.5362 72.425 72.7C72.761 72.8825 73.0507 73.1397 73.2718 73.4518C73.4928 73.7638 73.6393 74.1224 73.7 74.5L76 88.1Z" fill="#144835"/>
<path d="M83.2756 46.375L81.9506 63.725C81.642 67.7441 79.8277 71.4985 76.8706 74.2378C73.9135 76.9771 70.0315 78.4992 66.0006 78.5C65.4178 78.5366 64.8333 78.5366 64.2506 78.5C60.4725 78.0227 56.9801 76.2396 54.3778 73.4593C51.7755 70.679 50.2271 67.0764 50.0006 63.275L48.7256 46.375C48.6713 45.6902 48.7588 45.0016 48.9824 44.3521C49.2061 43.7026 49.5612 43.1062 50.0256 42.6C50.4946 42.0942 51.0633 41.691 51.6957 41.4156C52.3282 41.1403 53.0108 40.9988 53.7006 41H78.3006C78.9904 40.9988 79.673 41.1403 80.3054 41.4156C80.9379 41.691 81.5065 42.0942 81.9756 42.6C82.44 43.1062 82.7951 43.7026 83.0187 44.3521C83.2424 45.0016 83.3298 45.6902 83.2756 46.375ZM81.0006 88.5C81.0006 87.837 80.7372 87.2011 80.2683 86.7322C79.7995 86.2634 79.1636 86 78.5006 86H53.5006C52.8375 86 52.2017 86.2634 51.7328 86.7322C51.264 87.2011 51.0006 87.837 51.0006 88.5C51.0006 89.163 51.264 89.7989 51.7328 90.2678C52.2017 90.7366 52.8375 91 53.5006 91H78.5006C79.1636 91 79.7995 90.7366 80.2683 90.2678C80.7372 89.7989 81.0006 89.163 81.0006 88.5Z" fill="#CA9CE5"/>
</svg>
