<svg width="132" height="132" viewBox="0 0 132 132" fill="none" xmlns="http://www.w3.org/2000/svg">
<circle opacity="0.4" cx="66" cy="66" r="66" fill="#EBC9FF"/>
<path d="M64.0489 39.9271C64.3483 39.0057 65.6517 39.0057 65.9511 39.9271L71.5109 57.0385C71.6448 57.4505 72.0287 57.7295 72.462 57.7295H90.454C91.4227 57.7295 91.8255 58.9691 91.0418 59.5385L76.4859 70.114C76.1354 70.3686 75.9888 70.82 76.1227 71.232L81.6825 88.3435C81.9819 89.2648 80.9274 90.0309 80.1437 89.4615L65.5878 78.886C65.2373 78.6314 64.7627 78.6314 64.4122 78.886L49.8563 89.4615C49.0726 90.0309 48.0181 89.2648 48.3175 88.3435L53.8773 71.232C54.0112 70.82 53.8646 70.3686 53.5141 70.114L38.9582 59.5385C38.1745 58.9691 38.5773 57.7295 39.546 57.7295H57.538C57.9713 57.7295 58.3552 57.4505 58.4891 57.0385L64.0489 39.9271Z" fill="#CA9CE5"/>
<path d="M83.0621 31.5345C83.3843 30.6639 84.6157 30.6639 84.9379 31.5345L86.5413 35.8679C86.6426 36.1416 86.8584 36.3574 87.1321 36.4587L91.4655 38.0621C92.3361 38.3843 92.3361 39.6157 91.4655 39.9379L87.1321 41.5413C86.8584 41.6426 86.6426 41.8584 86.5413 42.1321L84.9379 46.4655C84.6157 47.3361 83.3843 47.3361 83.0621 46.4655L81.4587 42.1321C81.3574 41.8584 81.1416 41.6426 80.8679 41.5413L76.5345 39.9379C75.6639 39.6157 75.6639 38.3843 76.5345 38.0621L80.8679 36.4587C81.1416 36.3574 81.3574 36.1416 81.4587 35.8679L83.0621 31.5345Z" fill="#144835"/>
</svg>
