<svg width="56" height="56" fill="none" xmlns="http://www.w3.org/2000/svg"><path d="M26.546 5.749h-7.283v1.78h7.283V5.75Z" fill="#7F7F7F"/><path d="M38.038 11.975h.89v-6.41a3.56 3.56 0 0 0-3.56-3.562H10.435a3.56 3.56 0 0 0-3.562 3.561v44.877a3.563 3.563 0 0 0 3.562 3.562h24.931a3.563 3.563 0 0 0 3.562-3.562v-6.41H37.148v6.41c0 .98-.798 1.78-1.78 1.78H10.435c-.983 0-1.781-.8-1.781-1.78V5.564c0-.983.798-1.78 1.78-1.78h24.932c.983 0 1.781.797 1.781 1.78v6.411h.89Z" fill="#7F7F7F"/><path d="M44.975 13.757h-16.74V42.25h21.37V18.387c-1.81-1.81-2.82-2.825-4.63-4.63Zm1.186 3.7 1.606 1.61h-3.486V15.58l1.88 1.877ZM30.016 40.47V15.537H42.5v5.31h5.324V40.47H30.016Z" fill="#7F7F7F"/><path d="m16.286 27.107 2.924-2.924-1.257-1.261-3.184 3.184a2.653 2.653 0 0 0-.784 1.891c0 .712.278 1.382.784 1.888l3.184 3.184 1.257-1.257-2.92-2.924h28.742v-1.781H16.286Z" fill="#7F7F7F"/><path d="M43.252 30.68h-9.969v1.781h9.97v-1.78ZM41.471 34.247h-8.188v1.78h8.188v-1.78Z" fill="#7F7F7F"/></svg>