<svg xmlns="http://www.w3.org/2000/svg" viewBox="0 0 360 360" width="360" height="360" preserveAspectRatio="xMidYMid slice" style="width: 100%; height: 100%; transform: translate3d(0px, 0px, 0px);"><defs><clipPath id="__lottie_element_17"><rect width="360" height="360" x="0" y="0"></rect></clipPath><clipPath id="__lottie_element_19"><path d="M0,0 L826,0 L826,820 L0,820z"></path></clipPath></defs><g clip-path="url(#__lottie_element_17)"><g class="ai" clip-path="url(#__lottie_element_19)" transform="matrix(0.4399999976158142,0,0,0.4399999976158142,-1.720001220703125,-0.399993896484375)" opacity="1" style="display: block;"><g transform="matrix(22.876359939575195,0,0,22.876359939575195,174.85983276367188,154.852294921875)" opacity="1" style="display: block;"><g opacity="1" transform="matrix(1,0,0,1,17.46500015258789,4.125)"><path fill="rgb(190,245,195)" fill-opacity="1" d=" M0.875,-3 C0.875,-3.4830000400543213 0.4830000102519989,-3.875 0,-3.875 C-0.4830000102519989,-3.875 -0.875,-3.4830000400543213 -0.875,-3 C-0.875,-3 -0.875,-0.875 -0.875,-0.875 C-0.875,-0.875 -3,-0.875 -3,-0.875 C-3.4830000400543213,-0.875 -3.875,-0.4830000102519989 -3.875,0 C-3.875,0.4830000102519989 -3.4830000400543213,0.875 -3,0.875 C-3,0.875 -0.875,0.875 -0.875,0.875 C-0.875,0.875 -0.875,3 -0.875,3 C-0.875,3.4830000400543213 -0.4830000102519989,3.875 0,3.875 C0.4830000102519989,3.875 0.875,3.4830000400543213 0.875,3 C0.875,3 0.875,0.875 0.875,0.875 C0.875,0.875 3,0.875 3,0.875 C3.4830000400543213,0.875 3.875,0.4830000102519989 3.875,0 C3.875,-0.4830000102519989 3.4830000400543213,-0.875 3,-0.875 C3,-0.875 0.875,-0.875 0.875,-0.875 C0.875,-0.875 0.875,-3 0.875,-3z"></path></g></g><g transform="matrix(22.876359939575195,0,0,22.876359939575195,174.86004638671875,154.86004638671875)" opacity="1" style="display: block;"><g opacity="1" transform="matrix(1,0,0,1,9.78499984741211,11.625)"><path stroke-linecap="round" stroke-linejoin="miter" fill-opacity="0" stroke-miterlimit="4" stroke="rgb(190,245,195)" stroke-opacity="1" stroke-width="1.5" d=" M-1.8200000524520874,-4 C-0.6069999933242798,-4 1.8200000524520874,-4 1.8200000524520874,-2 C1.8200000524520874,-0.6370000243186951 0.6919999718666077,-0.2029999941587448 -0.4090000092983246,-0.06499999761581421 C-0.9480000138282776,0.003000000026077032 -1.2330000400543213,0.6439999938011169 -0.8679999709129333,1.0449999570846558 C-0.8679999709129333,1.0449999570846558 1.8200000524520874,4 1.8200000524520874,4"></path></g><g opacity="1" transform="matrix(1,0,0,1,0,0)"><path stroke-linecap="round" stroke-linejoin="miter" fill-opacity="0" stroke-miterlimit="4" stroke="rgb(190,245,195)" stroke-opacity="1" stroke-width="1.5" d=" M7.965000152587891,9.625 C7.965000152587891,9.625 12.968000411987305,9.625 12.968000411987305,9.625"></path></g><g opacity="1" transform="matrix(1,0,0,1,0,0)"><path stroke-linecap="round" stroke-linejoin="miter" fill-opacity="0" stroke-miterlimit="4" stroke="rgb(190,245,195)" stroke-opacity="1" stroke-width="1.5" d=" M7.965000152587891,7.625 C7.965000152587891,7.625 12.968000411987305,7.625 12.968000411987305,7.625"></path></g></g><g transform="matrix(-1,0,0,1,413,410)" opacity="1" style="display: block;"><g opacity="1" transform="matrix(0.9541299939155579,0,0,0.9541299939155579,0.2029999941587448,2.2339999675750732)"><path stroke-linecap="round" stroke-linejoin="round" fill-opacity="0" stroke="rgb(190,245,195)" stroke-opacity="1" stroke-width="56" d=" M-29.976999282836914,-213.51400756835938 C-20.179000854492188,-214.8800048828125 -10.170999526977539,-215.58599853515625 0,-215.58599853515625 C0,-215.58599853515625 0,-215.58599853515625 0,-215.58599853515625 C118.9819107055664,-215.58599853515625 215.58599853515625,-118.9819107055664 215.58599853515625,0 C215.58599853515625,118.9819107055664 118.9819107055664,215.58599853515625 0,215.58599853515625 C-118.9819107055664,215.58599853515625 -215.58599853515625,118.9819107055664 -215.58599853515625,0 C-215.58599853515625,-12.779000282287598 -214.4720001220703,-25.298999786376953 -212.3350067138672,-37.470001220703125"></path></g></g><g transform="matrix(-0.920479953289032,0,0,1,414.877197265625,410)" opacity="1" style="display: none;"><g opacity="1" transform="matrix(0.9541299939155579,0,0,0.9541299939155579,0.2029999941587448,2.2339999675750732)"><path stroke-linecap="butt" stroke-linejoin="miter" fill-opacity="0" stroke-miterlimit="4" stroke="rgb(190,245,195)" stroke-opacity="1" stroke-width="56" d=" M0,-215.58599853515625 C118.9819107055664,-215.58599853515625 215.58599853515625,-118.9819107055664 215.58599853515625,0 C215.58599853515625,118.9819107055664 118.9819107055664,215.58599853515625 0,215.58599853515625 C-118.9819107055664,215.58599853515625 -215.58599853515625,118.9819107055664 -215.58599853515625,0 C-215.58599853515625,-118.9819107055664 -118.9819107055664,-215.58599853515625 0,-215.58599853515625z"></path></g></g><g transform="matrix(1,0,0,1,413,410)" opacity="1" style="display: none;"><g opacity="1" transform="matrix(1,0,0,1,0,0)"><path fill="rgb(190,245,195)" fill-opacity="1" d=" M-4,-225.5 C-18.861000061035156,-225.1280059814453 104.59600067138672,-181.46299743652344 104.02799987792969,-15.46399974822998 C103.52799987792969,130.53599548339844 30,195 14.75,195 C-12.87399959564209,195 54.75,189.75 54.75,189.75 C54.75,189.75 119.802001953125,155.10299682617188 118.52799987792969,-58.9640007019043 C118.02799987792969,-142.96400451660156 16,-226 -4,-225.5z"></path><path stroke-linecap="butt" stroke-linejoin="miter" fill-opacity="0" stroke-miterlimit="4" stroke="rgb(190,245,195)" stroke-opacity="1" stroke-width="10" d=" M-4,-225.5 C-18.861000061035156,-225.1280059814453 104.59600067138672,-181.46299743652344 104.02799987792969,-15.46399974822998 C103.52799987792969,130.53599548339844 30,195 14.75,195 C-12.87399959564209,195 54.75,189.75 54.75,189.75 C54.75,189.75 119.802001953125,155.10299682617188 118.52799987792969,-58.9640007019043 C118.02799987792969,-142.96400451660156 16,-226 -4,-225.5z"></path></g></g><g transform="matrix(-1,0,0,1,435,410)" opacity="1" style="display: none;"><g opacity="1" transform="matrix(1,0,0,1,0,0)"><path fill="rgb(190,245,195)" fill-opacity="1" d=" M9.972000122070312,-220.50999450683594 C-4.888999938964844,-220.13800048828125 118.56800079345703,-176.47300720214844 118,-10.473999977111816 C117.5,135.5260009765625 43.97200012207031,199.99000549316406 28.722000122070312,199.99000549316406 C1.0980000495910645,199.99000549316406 68.72200012207031,194.74000549316406 68.72200012207031,194.74000549316406 C68.72200012207031,194.74000549316406 133.7740020751953,160.09300231933594 132.5,-53.9739990234375 C132,-137.9739990234375 29.972000122070312,-221.00999450683594 9.972000122070312,-220.50999450683594z"></path><path stroke-linecap="butt" stroke-linejoin="miter" fill-opacity="0" stroke-miterlimit="4" stroke="rgb(190,245,195)" stroke-opacity="1" stroke-width="10" d=" M9.972000122070312,-220.50999450683594 C-4.888999938964844,-220.13800048828125 118.56800079345703,-176.47300720214844 118,-10.473999977111816 C117.5,135.5260009765625 43.97200012207031,199.99000549316406 28.722000122070312,199.99000549316406 C1.0980000495910645,199.99000549316406 68.72200012207031,194.74000549316406 68.72200012207031,194.74000549316406 C68.72200012207031,194.74000549316406 133.7740020751953,160.09300231933594 132.5,-53.9739990234375 C132,-137.9739990234375 29.972000122070312,-221.00999450683594 9.972000122070312,-220.50999450683594z"></path></g></g></g></g></svg>