<svg xmlns="http://www.w3.org/2000/svg" viewBox="0 0 360 360" width="360" height="360" preserveAspectRatio="xMidYMid slice" style="width: 100%; height: 100%; transform: translate3d(0px, 0px, 0px);"><defs><clipPath id="_lottie_element_29"><rect width="360" height="360" x="0" y="0"></rect></clipPath><clipPath id="lottie_element_31"><path d="M0,0 L826,0 L826,826 L0,826z"></path></clipPath><mask id="lottie_element_41" mask-type="alpha"><g transform="matrix(22.940200805664062,0,0,22.940200805664062,335.49725341796875,341.9642639160156)" opacity="1" style="display: block;"><g opacity="1" transform="matrix(1,0,0,1,3.2320001125335693,3.2320001125335693)"><path fill="rgb(190,245,195)" fill-opacity="1" d=" M2.9820001125335693,0 C2.9820001125335693,1.6469999551773071 1.6469999551773071,2.9820001125335693 0,2.9820001125335693 C-1.6469999551773071,2.9820001125335693 -2.9820001125335693,1.6469999551773071 -2.9820001125335693,0 C-2.9820001125335693,-1.6469999551773071 -1.6469999551773071,-2.9820001125335693 0,-2.9820001125335693 C1.6469999551773071,-2.9820001125335693 2.9820001125335693,-1.6469999551773071 2.9820001125335693,0z"></path></g></g></mask></defs><g clip-path="url(#lottie_element_29)"><g clip-path="url(#lottie_element_31)" transform="matrix(0.4351600110530853,0,0,0.4351600110530853,0.2789154052734375,0.2789154052734375)" opacity="1" style="display: block;"><g transform="matrix(22.940200805664062,0,0,22.940200805664062,94.89300537109375,289.5440368652344)" opacity="1" style="display: block;"><g opacity="1" transform="matrix(1,0,0,1,13.795999526977539,8.295000076293945)"><path stroke-linecap="round" stroke-linejoin="round" fill-opacity="0" stroke="rgb(190,245,195)" stroke-opacity="1" stroke-width="2" d=" M-8.6899995803833,-3.187000036239624 C-8.795999526977539,-2.7330000400543213 -8.383999824523926,-2.0439999103546143 -8.383999824523926,-2.0439999103546143 C-8.383999824523926,-2.0439999103546143 -5.664999961853027,3.2950000762939453 0.06400000303983688,3.194999933242798 C5.985000133514404,3.0920000076293945 8.704000473022461,-2.569999933242798 8.704000473022461,-2.569999933242798 C8.704000473022461,-2.569999933242798 8.795999526977539,-3.0950000286102295 8.673999786376953,-3.2939999103546143"></path></g></g><g transform="matrix(22.940200805664062,0,0,22.940200805664062,101.77069091796875,158.0166015625)" opacity="1" style="display: block;"><g opacity="1" transform="matrix(1,0,0,1,13.472999572753906,7.736000061035156)"><path stroke-linecap="round" stroke-linejoin="round" fill-opacity="0" stroke="rgb(190,245,195)" stroke-opacity="1" stroke-width="2" d=" M-8.472999572753906,2.7360000610351562 C-8.472999572753906,2.7360000610351562 -6.008999824523926,-2.5309998989105225 -0.08799999952316284,-2.634999990463257 C5.640999794006348,-2.734999895095825 8.472999572753906,2.634999990463257 8.472999572753906,2.634999990463257"></path></g></g><g mask="url(#_lottie_element_41)" style="display: block;"><g transform="matrix(1,0,0,1,413,381)" opacity="1"><g opacity="1" transform="matrix(1.6021300554275513,0,0,1,-2.7929999828338623,-20.472999572753906)"><path fill="rgb(190,245,195)" fill-opacity="1" d=" M-0.6240000128746033,386.0429992675781 C198.35699462890625,379.4729919433594 158.41000366210938,91.4729995727539 158.20700073242188,0 C158.03799438476562,-76.19100189208984 86.7509994506836,-54.042999267578125 -0.6240000128746033,-54.042999267578125 C-87.9990005493164,-54.042999267578125 -152.63800048828125,-75.98799896240234 -158.20700073242188,0 C-164.91000366210938,91.4729995727539 -179.8249969482422,391.9599914550781 -0.6240000128746033,386.0429992675781z"></path><path stroke-linecap="butt" stroke-linejoin="miter" fill-opacity="0" stroke-miterlimit="4" stroke="rgb(19,72,53)" stroke-opacity="1" stroke-width="0" d=" M-0.6240000128746033,386.0429992675781 C198.35699462890625,379.4729919433594 158.41000366210938,91.4729995727539 158.20700073242188,0 C158.03799438476562,-76.19100189208984 86.7509994506836,-54.042999267578125 -0.6240000128746033,-54.042999267578125 C-87.9990005493164,-54.042999267578125 -152.63800048828125,-75.98799896240234 -158.20700073242188,0 C-164.91000366210938,91.4729995727539 -179.8249969482422,391.9599914550781 -0.6240000128746033,386.0429992675781z"></path></g></g></g><g style="display: block;" transform="matrix(1,0,0,1,413,413)" opacity="1"><g opacity="1" transform="matrix(1,0,0,1,0,0)"><path fill="rgb(19,72,53)" fill-opacity="1" d=" M-205.3209991455078,-206.3509979248047 C-134.89599609375,-136.09300231933594 205,203 205,203"></path><path stroke-linecap="round" stroke-linejoin="round" fill-opacity="0" stroke="rgb(190,245,195)" stroke-opacity="1" stroke-width="46" d=" M-205.3209991455078,-206.3509979248047 C-134.89599609375,-136.09300231933594 205,203 205,203"></path></g></g><g style="display: block;" transform="matrix(1,0,0,1,443,382)" opacity="1"><g opacity="1" transform="matrix(1,0,0,1,0,-4)"><path fill="rgb(19,72,53)" fill-opacity="1" d=" M-205.3209991455078,-206.3509979248047 C-134.89599609375,-136.09300231933594 205,203 205,203"></path><path stroke-linecap="round" stroke-linejoin="round" fill-opacity="0" stroke="rgb(19,72,53)" stroke-opacity="1" stroke-width="46" d=" M-205.3209991455078,-206.3509979248047 C-134.89599609375,-136.09300231933594 205,203 205,203"></path></g></g></g></g></svg>