<svg xmlns="http://www.w3.org/2000/svg" viewBox="0 0 360 360" width="360" height="360" preserveAspectRatio="xMidYMid slice" style="width: 100%; height: 100%; transform: translate3d(0px, 0px, 0px);"><defs><clipPath id="_lottie_element_54"><rect width="360" height="360" x="0" y="0"></rect></clipPath><clipPath id="lottie_element_56"><path d="M0,0 L826,0 L826,826 L0,826z"></path></clipPath><mask id="lottie_element_63" mask-type="alpha"><g style="display: block;" transform="matrix(1,0,0,1,165.625,365.50201416015625)" opacity="1"><g opacity="1" transform="matrix(1,0,0,1,247.375,247.375)"><path stroke-linecap="butt" stroke-linejoin="miter" fill-opacity="0" stroke-miterlimit="10" stroke="rgb(190,245,195)" stroke-opacity="1" stroke-width="46" d=" M132.375,0 C132.375,73.10900115966797 73.10900115966797,132.375 0,132.375 C-73.10800170898438,132.375 -132.375,73.10900115966797 -132.375,0 C-132.375,-73.10900115966797 -73.10800170898438,-132.375 0,-132.375 C73.10900115966797,-132.375 132.375,-73.10900115966797 132.375,0z"></path></g></g></mask><mask id="lottie_element_62" mask-type="alpha"><g style="display: block;" transform="matrix(1,0,0,1,251.2790069580078,205.3900146484375)" opacity="1"><g opacity="1" transform="matrix(1,0,0,1,161.7220001220703,161.7209930419922)"><path stroke-linecap="butt" stroke-linejoin="miter" fill-opacity="0" stroke-miterlimit="10" stroke="rgb(190,245,195)" stroke-opacity="1" stroke-width="46" d=" M46.72100067138672,0 C46.72100067138672,25.80299949645996 25.80299949645996,46.72100067138672 0,46.72100067138672 C-25.804000854492188,46.72100067138672 -46.72100067138672,25.80299949645996 -46.72100067138672,0 C-46.72100067138672,-25.80299949645996 -25.804000854492188,-46.72100067138672 0,-46.72100067138672 C25.80299949645996,-46.72100067138672 46.72100067138672,-25.80299949645996 46.72100067138672,0z"></path></g></g></mask></defs><g clip-path="url(#lottie_element_54)"><g clip-path="url(#lottie_element_56)" transform="matrix(0.4399999976158142,0,0,0.4399999976158142,-1.720001220703125,-1.720001220703125)" opacity="1" style="display: block;"><g mask="url(#lottie_element_63)" style="display: block;"><g transform="matrix(1,0,0,1,102.37997436523438,78.926025390625)" opacity="1"><path fill="rgb(190,245,195)" fill-opacity="1" d=" M287.06,122.07 C287.06,122.07 159.75,168.72 159.75,168.72 C140.67,175.71 128.04,193.48 128.04,213.33 C128.04,213.33 128.04,327.66 128.04,327.66 C128.04,327.66 116.52,467.65 302.11,543.11 C307.46,545.28 313.47,545.18 318.75,542.85 C353.46,527.55 485.51,465.32 494.69,333.32 C494.69,333.32 494.69,213.19 494.69,213.19 C494.69,193.24 481.94,175.41 462.74,168.49 C462.74,168.49 333.66,121.95 333.66,121.95 C318.6,116.52 302.1,116.56 287.06,122.07z"></path><g opacity="1" transform="matrix(1,0,0,1,305.60101318359375,330.89898681640625)"><path stroke-linecap="butt" stroke-linejoin="miter" fill-opacity="0" stroke-miterlimit="10" stroke="rgb(190,245,195)" stroke-opacity="1" stroke-width="46.607" d=" M-18.54599952697754,-208.82699584960938 C-18.54599952697754,-208.82699584960938 -145.85299682617188,-162.177001953125 -145.85299682617188,-162.177001953125 C-164.927001953125,-155.18800354003906 -177.5570068359375,-137.4149932861328 -177.5570068359375,-117.56400299072266 C-177.5570068359375,-117.56400299072266 -177.5570068359375,-3.236999988555908 -177.5570068359375,-3.236999988555908 C-177.5570068359375,-3.236999988555908 -189.08299255371094,136.75399780273438 -3.490000009536743,212.20899963378906 C1.8550000190734863,214.3820037841797 7.866000175476074,214.2790069580078 13.145000457763672,211.9510040283203 C47.85900115966797,196.64700317382812 179.9040069580078,134.41700744628906 189.08399963378906,2.4240000247955322 C189.08399963378906,2.4240000247955322 189.08399963378906,-117.70999908447266 189.08399963378906,-117.70999908447266 C189.08399963378906,-137.6540069580078 176.33700561523438,-155.49000549316406 157.13600158691406,-162.41299438476562 C157.13600158691406,-162.41299438476562 28.062000274658203,-208.947998046875 28.062000274658203,-208.947998046875 C12.994000434875488,-214.38099670410156 -3.50600004196167,-214.33799743652344 -18.54599952697754,-208.82699584960938z"></path></g></g></g><g mask="url(#_lottie_element_62)" style="display: block;"><g transform="matrix(1,0,0,1,102.37997436523438,78.926025390625)" opacity="1"><path fill="rgb(190,245,195)" fill-opacity="1" d=" M287.06,122.07 C287.06,122.07 159.75,168.72 159.75,168.72 C140.67,175.71 128.04,193.48 128.04,213.33 C128.04,213.33 128.04,327.66 128.04,327.66 C128.04,327.66 116.52,467.65 302.11,543.11 C307.46,545.28 313.47,545.18 318.75,542.85 C353.46,527.55 485.51,465.32 494.69,333.32 C494.69,333.32 494.69,213.19 494.69,213.19 C494.69,193.24 481.94,175.41 462.74,168.49 C462.74,168.49 333.66,121.95 333.66,121.95 C318.6,116.52 302.1,116.56 287.06,122.07z"></path><g opacity="1" transform="matrix(1,0,0,1,305.60101318359375,330.89898681640625)"><path stroke-linecap="butt" stroke-linejoin="miter" fill-opacity="0" stroke-miterlimit="10" stroke="rgb(190,245,195)" stroke-opacity="1" stroke-width="46.607" d=" M-18.54599952697754,-208.82699584960938 C-18.54599952697754,-208.82699584960938 -145.85299682617188,-162.177001953125 -145.85299682617188,-162.177001953125 C-164.927001953125,-155.18800354003906 -177.5570068359375,-137.4149932861328 -177.5570068359375,-117.56400299072266 C-177.5570068359375,-117.56400299072266 -177.5570068359375,-3.236999988555908 -177.5570068359375,-3.236999988555908 C-177.5570068359375,-3.236999988555908 -189.08299255371094,136.75399780273438 -3.490000009536743,212.20899963378906 C1.8550000190734863,214.3820037841797 7.866000175476074,214.2790069580078 13.145000457763672,211.9510040283203 C47.85900115966797,196.64700317382812 179.9040069580078,134.41700744628906 189.08399963378906,2.4240000247955322 C189.08399963378906,2.4240000247955322 189.08399963378906,-117.70999908447266 189.08399963378906,-117.70999908447266 C189.08399963378906,-137.6540069580078 176.33700561523438,-155.49000549316406 157.13600158691406,-162.41299438476562 C157.13600158691406,-162.41299438476562 28.062000274658203,-208.947998046875 28.062000274658203,-208.947998046875 C12.994000434875488,-214.38099670410156 -3.50600004196167,-214.33799743652344 -18.54599952697754,-208.82699584960938z"></path></g></g></g><g transform="matrix(1,0,0,1,102.37997436523438,78.926025390625)" opacity="1" style="display: block;"><g opacity="1" transform="matrix(1,0,0,1,305.60101318359375,330.89898681640625)"><path stroke-linecap="butt" stroke-linejoin="miter" fill-opacity="0" stroke-miterlimit="10" stroke="rgb(190,245,195)" stroke-opacity="1" stroke-width="46.607" d=" M-18.54599952697754,-208.82699584960938 C-18.54599952697754,-208.82699584960938 -145.85299682617188,-162.177001953125 -145.85299682617188,-162.177001953125 C-164.927001953125,-155.18800354003906 -177.5570068359375,-137.4149932861328 -177.5570068359375,-117.56400299072266 C-177.5570068359375,-117.56400299072266 -177.5570068359375,-3.236999988555908 -177.5570068359375,-3.236999988555908 C-177.5570068359375,-3.236999988555908 -189.08299255371094,136.75399780273438 -3.490000009536743,212.20899963378906 C1.8550000190734863,214.3820037841797 7.866000175476074,214.2790069580078 13.145000457763672,211.9510040283203 C47.85900115966797,196.64700317382812 179.9040069580078,134.41700744628906 189.08399963378906,2.4240000247955322 C189.08399963378906,2.4240000247955322 189.08399963378906,-117.70999908447266 189.08399963378906,-117.70999908447266 C189.08399963378906,-137.6540069580078 176.33700561523438,-155.49000549316406 157.13600158691406,-162.41299438476562 C157.13600158691406,-162.41299438476562 28.062000274658203,-208.947998046875 28.062000274658203,-208.947998046875 C12.994000434875488,-214.38099670410156 -3.50600004196167,-214.33799743652344 -18.54599952697754,-208.82699584960938z"></path></g></g></g></g></svg>