<svg xmlns="http://www.w3.org/2000/svg" viewBox="0 0 360 360" width="360" height="360" preserveAspectRatio="xMidYMid slice" style="width: 100%; height: 100%; transform: translate3d(0px, 0px, 0px);"><defs><clipPath id="__lottie_element_41"><rect width="360" height="360" x="0" y="0"></rect></clipPath><clipPath id="__lottie_element_43"><path d="M0,0 L822,0 L822,820 L0,820z"></path></clipPath></defs><g clip-path="url(#__lottie_element_41)"><g class="ai" clip-path="url(#__lottie_element_43)" transform="matrix(0.4300000071525574,0,0,0.4300000071525574,-0.7299957275390625,-1.3000030517578125)" opacity="1" style="display: block;"><g transform="matrix(1.5736044645309448,0,0,1.5736044645309448,406.6056823730469,404.2662658691406)" opacity="1" style="display: block;"><g opacity="1" transform="matrix(1,0,0,1,8.142000198364258,12.911999702453613)"><path stroke-linecap="butt" stroke-linejoin="miter" fill-opacity="0" stroke-miterlimit="4" stroke="rgb(190,245,195)" stroke-opacity="1" stroke-width="31" d=" M129.14999389648438,-89.9000015258789 C129.14999389648438,-89.9000015258789 129.14999389648438,89.9000015258789 129.14999389648438,89.9000015258789 C129.14999389648438,104.24940490722656 117.49939727783203,115.9000015258789 103.14999389648438,115.9000015258789 C103.14999389648438,115.9000015258789 -103.14999389648438,115.9000015258789 -103.14999389648438,115.9000015258789 C-117.49939727783203,115.9000015258789 -129.14999389648438,104.24940490722656 -129.14999389648438,89.9000015258789 C-129.14999389648438,89.9000015258789 -129.14999389648438,-89.9000015258789 -129.14999389648438,-89.9000015258789 C-129.14999389648438,-104.24940490722656 -117.49939727783203,-115.9000015258789 -103.14999389648438,-115.9000015258789 C-103.14999389648438,-115.9000015258789 103.14999389648438,-115.9000015258789 103.14999389648438,-115.9000015258789 C117.49939727783203,-115.9000015258789 129.14999389648438,-104.24940490722656 129.14999389648438,-89.9000015258789z"></path></g></g><g transform="matrix(23.385364532470703,0,0,23.385364532470703,179.9536895751953,186.1463623046875)" opacity="1" style="display: block;"><g opacity="1" transform="matrix(1,0,0,1,10.25,9.75)"><path fill="rgb(190,245,195)" fill-opacity="1" d=" M-261,-267.5 C-261,-267.5 99,-267.5 99,-267.5 C99,-267.5 99,512.5 99,512.5 C99,512.5 -261,512.5 -261,512.5 C-261,512.5 -261,-267.5 -261,-267.5z M-261,512.5 C-261,512.5 99,512.5 99,512.5 C99,512.5 99,-267.5 99,-267.5 C99,-267.5 -261,-267.5 -261,-267.5 C-261,-267.5 -261,512.5 -261,512.5z M-0.17000000178813934,-0.34299999475479126 C-0.7020000219345093,-0.5180000066757202 -1.3730000257492065,-0.5239999890327454 -1.909999966621399,-0.5239999890327454 C-2.13100004196167,-0.5239999890327454 -2.3259999752044678,-0.6359999775886536 -2.440999984741211,-0.8059999942779541 C-2.509999990463257,-0.9079999923706055 -2.549999952316284,-1.031000018119812 -2.549999952316284,-1.1640000343322754 C-2.549999952316284,-1.2079999446868896 -2.5460000038146973,-1.2510000467300415 -2.5369999408721924,-1.2929999828338623 C-2.5220000743865967,-1.3669999837875366 -2.49399995803833,-1.437000036239624 -2.4549999237060547,-1.5 C-2.3420000076293945,-1.6820000410079956 -2.140000104904175,-1.8040000200271606 -1.909999966621399,-1.8040000200271606 C-1.909999966621399,-1.8040000200271606 -1.8509999513626099,-1.8040000200271606 -1.8509999513626099,-1.8040000200271606 C-1.8509999513626099,-1.8040000200271606 -1.840999960899353,-1.8040000200271606 -1.840999960899353,-1.8040000200271606 C-1.840999960899353,-1.8040000200271606 2.359999895095825,-1.8040000200271606 2.359999895095825,-1.8040000200271606 C2.7130000591278076,-1.8040000200271606 3,-1.5169999599456787 3,-1.1640000343322754 C3,-0.8100000023841858 2.7130000591278076,-0.5239999890327454 2.359999895095825,-0.5239999890327454 C2.359999895095825,-0.5239999890327454 1.5770000219345093,-0.5239999890327454 1.5770000219345093,-0.5239999890327454 C1.649999976158142,-0.39100000262260437 1.7089999914169312,-0.24899999797344208 1.7510000467300415,-0.09700000286102295 C1.7510000467300415,-0.09700000286102295 2.359999895095825,-0.09700000286102295 2.359999895095825,-0.09700000286102295 C2.7130000591278076,-0.09700000286102295 3,0.1899999976158142 3,0.5429999828338623 C3,0.8970000147819519 2.7130000591278076,1.1829999685287476 2.359999895095825,1.1829999685287476 C2.359999895095825,1.1829999685287476 1.7510000467300415,1.1829999685287476 1.7510000467300415,1.1829999685287476 C1.6019999980926514,1.715000033378601 1.2660000324249268,2.1059999465942383 0.8370000123977661,2.36899995803833 C0.41499999165534973,2.627000093460083 -0.07900000363588333,2.753000020980835 -0.5289999842643738,2.816999912261963 C-0.5289999842643738,2.816999912261963 1.6690000295639038,5.232999801635742 1.6690000295639038,5.232999801635742 C1.906999945640564,5.494999885559082 1.8880000114440918,5.89900016784668 1.6260000467300415,6.13700008392334 C1.3650000095367432,6.375 0.9599999785423279,6.355999946594238 0.722000002861023,6.093999862670898 C0.722000002861023,6.093999862670898 -1.7339999675750732,3.3949999809265137 -1.7339999675750732,3.3949999809265137 C-2.382999897003174,2.681999921798706 -1.8339999914169312,1.652999997138977 -1,1.5820000171661377 C-0.5249999761581421,1.5420000553131104 -0.11100000143051147,1.4479999542236328 0.16899999976158142,1.2769999504089355 C0.2150000035762787,1.2480000257492065 0.2590000033378601,1.218000054359436 0.29899999499320984,1.1829999685287476 C0.29899999499320984,1.1829999685287476 -1.909999966621399,1.1829999685287476 -1.909999966621399,1.1829999685287476 C-2.2639999389648438,1.1829999685287476 -2.549999952316284,0.8970000147819519 -2.549999952316284,0.5429999828338623 C-2.549999952316284,0.1899999976158142 -2.2639999389648438,-0.09700000286102295 -1.909999966621399,-0.09700000286102295 C-1.909999966621399,-0.09700000286102295 0.2980000078678131,-0.09700000286102295 0.2980000078678131,-0.09700000286102295 C0.1889999955892563,-0.19200000166893005 0.03500000014901161,-0.2750000059604645 -0.17000000178813934,-0.34299999475479126z"></path><g opacity="1" transform="matrix(1,0,0,1,0,0)"></g></g></g><g transform="matrix(1.7311725616455078,0,0,1.5736044645309448,397.9544372558594,404.2662658691406)" opacity="1" style="display: block;"><g opacity="1" transform="matrix(1,0,0,1,15.420000076293945,-52.36399841308594)"><path fill="rgb(190,245,195)" fill-opacity="1" d=" M124.41999816894531,0 C124.41999816894531,0 124.41999816894531,0 124.41999816894531,0 C124.41999816894531,5.86973237991333 119.65422821044922,10.635499954223633 113.78450012207031,10.635499954223633 C113.78450012207031,10.635499954223633 -113.78450012207031,10.635499954223633 -113.78450012207031,10.635499954223633 C-119.65422821044922,10.635499954223633 -124.41999816894531,5.86973237991333 -124.41999816894531,0 C-124.41999816894531,0 -124.41999816894531,0 -124.41999816894531,0 C-124.41999816894531,-5.86973237991333 -119.65422821044922,-10.635499954223633 -113.78450012207031,-10.635499954223633 C-113.78450012207031,-10.635499954223633 113.78450012207031,-10.635499954223633 113.78450012207031,-10.635499954223633 C119.65422821044922,-10.635499954223633 124.41999816894531,-5.86973237991333 124.41999816894531,0z"></path><path stroke-linecap="butt" stroke-linejoin="miter" fill-opacity="0" stroke-miterlimit="4" stroke="rgb(237,0,0)" stroke-opacity="1" stroke-width="0" d=" M124.41999816894531,0 C124.41999816894531,0 124.41999816894531,0 124.41999816894531,0 C124.41999816894531,5.86973237991333 119.65422821044922,10.635499954223633 113.78450012207031,10.635499954223633 C113.78450012207031,10.635499954223633 -113.78450012207031,10.635499954223633 -113.78450012207031,10.635499954223633 C-119.65422821044922,10.635499954223633 -124.41999816894531,5.86973237991333 -124.41999816894531,0 C-124.41999816894531,0 -124.41999816894531,0 -124.41999816894531,0 C-124.41999816894531,-5.86973237991333 -119.65422821044922,-10.635499954223633 -113.78450012207031,-10.635499954223633 C-113.78450012207031,-10.635499954223633 113.78450012207031,-10.635499954223633 113.78450012207031,-10.635499954223633 C119.65422821044922,-10.635499954223633 124.41999816894531,-5.86973237991333 124.41999816894531,0z"></path></g></g><g transform="matrix(1.5736044645309448,0,0,1.5736044645309448,402.68377685546875,404.2662658691406)" opacity="1" style="display: block;"><g opacity="1" transform="matrix(1,0,0,1,-47.18899917602539,-103.22899627685547)"><path fill="rgb(190,245,195)" fill-opacity="1" d=" M16.31049919128418,-12.960000991821289 C16.31049919128418,-12.960000991821289 16.31049919128418,12.960000991821289 16.31049919128418,12.960000991821289 C16.31049919128418,21.96176528930664 9.001764297485352,29.27050018310547 0,29.27050018310547 C0,29.27050018310547 0,29.27050018310547 0,29.27050018310547 C-9.001764297485352,29.27050018310547 -16.31049919128418,21.96176528930664 -16.31049919128418,12.960000991821289 C-16.31049919128418,12.960000991821289 -16.31049919128418,-12.960000991821289 -16.31049919128418,-12.960000991821289 C-16.31049919128418,-21.96176528930664 -9.001764297485352,-29.27050018310547 0,-29.27050018310547 C0,-29.27050018310547 0,-29.27050018310547 0,-29.27050018310547 C9.001764297485352,-29.27050018310547 16.31049919128418,-21.96176528930664 16.31049919128418,-12.960000991821289z"></path><path stroke-linecap="butt" stroke-linejoin="miter" fill-opacity="0" stroke-miterlimit="4" stroke="rgb(237,0,0)" stroke-opacity="1" stroke-width="0" d=" M16.31049919128418,-12.960000991821289 C16.31049919128418,-12.960000991821289 16.31049919128418,12.960000991821289 16.31049919128418,12.960000991821289 C16.31049919128418,21.96176528930664 9.001764297485352,29.27050018310547 0,29.27050018310547 C0,29.27050018310547 0,29.27050018310547 0,29.27050018310547 C-9.001764297485352,29.27050018310547 -16.31049919128418,21.96176528930664 -16.31049919128418,12.960000991821289 C-16.31049919128418,12.960000991821289 -16.31049919128418,-12.960000991821289 -16.31049919128418,-12.960000991821289 C-16.31049919128418,-21.96176528930664 -9.001764297485352,-29.27050018310547 0,-29.27050018310547 C0,-29.27050018310547 0,-29.27050018310547 0,-29.27050018310547 C9.001764297485352,-29.27050018310547 16.31049919128418,-21.96176528930664 16.31049919128418,-12.960000991821289z"></path></g><g opacity="1" transform="matrix(1,0,0,1,70.51599884033203,-103.22899627685547)"><path fill="rgb(190,245,195)" fill-opacity="1" d=" M16.31049919128418,-12.960000991821289 C16.31049919128418,-12.960000991821289 16.31049919128418,12.960000991821289 16.31049919128418,12.960000991821289 C16.31049919128418,21.96176528930664 9.001764297485352,29.27050018310547 0,29.27050018310547 C0,29.27050018310547 0,29.27050018310547 0,29.27050018310547 C-9.001764297485352,29.27050018310547 -16.31049919128418,21.96176528930664 -16.31049919128418,12.960000991821289 C-16.31049919128418,12.960000991821289 -16.31049919128418,-12.960000991821289 -16.31049919128418,-12.960000991821289 C-16.31049919128418,-21.96176528930664 -9.001764297485352,-29.27050018310547 0,-29.27050018310547 C0,-29.27050018310547 0,-29.27050018310547 0,-29.27050018310547 C9.001764297485352,-29.27050018310547 16.31049919128418,-21.96176528930664 16.31049919128418,-12.960000991821289z"></path><path stroke-linecap="butt" stroke-linejoin="miter" fill-opacity="0" stroke-miterlimit="4" stroke="rgb(237,0,0)" stroke-opacity="1" stroke-width="0" d=" M16.31049919128418,-12.960000991821289 C16.31049919128418,-12.960000991821289 16.31049919128418,12.960000991821289 16.31049919128418,12.960000991821289 C16.31049919128418,21.96176528930664 9.001764297485352,29.27050018310547 0,29.27050018310547 C0,29.27050018310547 0,29.27050018310547 0,29.27050018310547 C-9.001764297485352,29.27050018310547 -16.31049919128418,21.96176528930664 -16.31049919128418,12.960000991821289 C-16.31049919128418,12.960000991821289 -16.31049919128418,-12.960000991821289 -16.31049919128418,-12.960000991821289 C-16.31049919128418,-21.96176528930664 -9.001764297485352,-29.27050018310547 0,-29.27050018310547 C0,-29.27050018310547 0,-29.27050018310547 0,-29.27050018310547 C9.001764297485352,-29.27050018310547 16.31049919128418,-21.96176528930664 16.31049919128418,-12.960000991821289z"></path></g></g><g transform="matrix(1,0,0,1,417,410)" opacity="1" style="display: none;"><path fill="rgb(19,72,53)" fill-opacity="1" d=" M203.05239868164062,-137.13479614257812 C203.05239868164062,-137.13479614257812 201.25149536132812,-140.23199462890625 201.25149536132812,-140.23199462890625 C201.62649536132812,-123.9739990234375 -95.24673461914062,-101.15339660644531 -119.54673767089844,-101.15339660644531 C-119.54673767089844,-101.15339660644531 -183.85093688964844,-91.77519989013672 -183.85093688964844,-91.77519989013672 C-201.66293334960938,-90.51719665527344 -203.437744140625,-73.89299774169922 -203.437744140625,-98.19400024414062 C-203.437744140625,-98.19400024414062 -203.8520050048828,-122.74199676513672 -203.8520050048828,-122.74199676513672 C-203.8520050048828,-147.04299926757812 -184.1529998779297,-166.74200439453125 -159.8520050048828,-166.74200439453125 C-159.8520050048828,-166.74200439453125 159.8520050048828,-166.74200439453125 159.8520050048828,-166.74200439453125 C184.1529998779297,-166.74200439453125 203.05239868164062,-161.43580627441406 203.05239868164062,-137.13479614257812z"></path><path stroke-linecap="butt" stroke-linejoin="miter" fill-opacity="0" stroke-miterlimit="4" stroke="rgb(190,245,195)" stroke-opacity="1" stroke-width="31" d=" M203.05239868164062,-137.13479614257812 C203.05239868164062,-137.13479614257812 201.25149536132812,-140.23199462890625 201.25149536132812,-140.23199462890625 C201.62649536132812,-123.9739990234375 -95.24673461914062,-101.15339660644531 -119.54673767089844,-101.15339660644531 C-119.54673767089844,-101.15339660644531 -183.85093688964844,-91.77519989013672 -183.85093688964844,-91.77519989013672 C-201.66293334960938,-90.51719665527344 -203.437744140625,-73.89299774169922 -203.437744140625,-98.19400024414062 C-203.437744140625,-98.19400024414062 -203.8520050048828,-122.74199676513672 -203.8520050048828,-122.74199676513672 C-203.8520050048828,-147.04299926757812 -184.1529998779297,-166.74200439453125 -159.8520050048828,-166.74200439453125 C-159.8520050048828,-166.74200439453125 159.8520050048828,-166.74200439453125 159.8520050048828,-166.74200439453125 C184.1529998779297,-166.74200439453125 203.05239868164062,-161.43580627441406 203.05239868164062,-137.13479614257812z"></path></g><g transform="matrix(1,0,0,1,411,410)" opacity="1" style="display: block;"><g opacity="1" transform="matrix(1,0,0,1,0,0)"><path fill="rgb(190,245,195)" fill-opacity="1" d=" M-202,-87 C-202,-87 217,-87 217,-87"></path><path stroke-linecap="butt" stroke-linejoin="miter" fill-opacity="0" stroke-miterlimit="4" stroke="rgb(190,245,195)" stroke-opacity="1" stroke-width="35" d=" M-202,-87 C-202,-87 217,-87 217,-87"></path></g></g></g></g></svg>