<svg width="24" height="24" viewBox="0 0 24 24" fill="none" xmlns="http://www.w3.org/2000/svg">
<path fill-rule="evenodd" clip-rule="evenodd" d="M22 6.00073C22 5.44845 21.5523 5.00073 21 5.00073H3C2.44772 5.00073 2 5.44845 2 6.00073C2 6.55302 2.44772 7.00073 3 7.00073H21C21.5523 7.00073 22 6.55302 22 6.00073ZM22 12.0007C22 11.4484 21.5523 11.0007 21 11.0007H11C10.4477 11.0007 10 11.4484 10 12.0007C10 12.553 10.4477 13.0007 11 13.0007H21C21.5523 13.0007 22 12.553 22 12.0007ZM21 17.0007C21.5523 17.0007 22 17.4484 22 18.0007C22 18.553 21.5523 19.0007 21 19.0007H7C6.44771 19.0007 6 18.553 6 18.0007C6 17.4484 6.44771 17.0007 7 17.0007H21Z" fill="#144835"/>
</svg>
