<svg xmlns="http://www.w3.org/2000/svg" viewBox="0 0 360 360" width="360" height="360" preserveAspectRatio="xMidYMid slice" style="width: 100%; height: 100%; transform: translate3d(0px, 0px, 0px);"><defs><clipPath id="__lottie_element_17"><rect width="360" height="360" x="0" y="0"></rect></clipPath><clipPath id="__lottie_element_19"><path d="M0,0 L830,0 L830,830 L0,830z"></path></clipPath></defs><g clip-path="url(#__lottie_element_17)"><g clip-path="url(#__lottie_element_19)" transform="matrix(0.43241000175476074,0,0,0.43241000175476074,0.5498504638671875,0.5498504638671875)" opacity="1" style="display: block;"><g transform="matrix(1,0,0,1,411,499)" opacity="1" style="display: block;"><path stroke-linecap="round" stroke-linejoin="round" fill-opacity="0" stroke="rgb(190,245,195)" stroke-opacity="1" stroke-width="49" d=" M211,-102.45800018310547 C211,-102.45800018310547 211,78.45800018310547 211,78.45800018310547 C211,102.75900268554688 191.30099487304688,122.45800018310547 167,122.45800018310547 C167,122.45800018310547 -159,122.45800018310547 -159,122.45800018310547 C-183.30099487304688,122.45800018310547 -203,102.75900268554688 -203,78.45800018310547 C-203,78.45800018310547 -203,-102.45800018310547 -203,-102.45800018310547 C-203,-126.75900268554688 -186,-134.75 -166.75,-153.45799255371094 C-166.75,-153.45799255371094 -38.72200012207031,-267.1910095214844 -38.72200012207031,-267.1910095214844 C-38.72200012207031,-267.1910095214844 -20.04400062561035,-291.3900146484375 3.6389999389648438,-291.4519958496094 C22,-291.5 41,-272.4580078125 41,-272.4580078125 C41,-272.4580078125 172.75,-154.45799255371094 172.75,-154.45799255371094 C192.25,-137.25 211,-126.75900268554688 211,-102.45800018310547z"></path></g><g transform="matrix(1,0,0,1,380,499)" opacity="1" style="display: block;"><path stroke-linecap="round" stroke-linejoin="round" fill-opacity="0" stroke="rgb(190,245,195)" stroke-opacity="1" stroke-width="49" d=" M232.77420043945312,-102.45800018310547 C232.77420043945312,-102.45800018310547 232.77420043945312,78.45800018310547 232.77420043945312,78.45800018310547 C232.77420043945312,102.75900268554688 213.0751953125,122.45800018310547 188.77420043945312,122.45800018310547 C188.77420043945312,122.45800018310547 -137.22579956054688,122.45800018310547 -137.22579956054688,122.45800018310547 C-161.5268096923828,122.45800018310547 -181.22579956054688,102.75900268554688 -181.22579956054688,78.45800018310547 C-181.22579956054688,78.45800018310547 -181.22579956054688,-102.45800018310547 -181.22579956054688,-102.45800018310547 C-181.22579956054688,-126.75900268554688 -164.22579956054688,-134.75 -144.97579956054688,-153.45799255371094 C-144.97579956054688,-153.45799255371094 -16.94780731201172,-267.1910095214844 -16.94780731201172,-267.1910095214844 C-16.94780731201172,-267.1910095214844 1.7301934957504272,-291.3900146484375 25.413192749023438,-291.4519958496094 C43.774192810058594,-291.5 62.774192810058594,-272.4580078125 62.774192810058594,-272.4580078125 C62.774192810058594,-272.4580078125 194.52420043945312,-154.45799255371094 194.52420043945312,-154.45799255371094 C214.02420043945312,-137.25 232.77420043945312,-126.75900268554688 232.77420043945312,-102.45800018310547z"></path></g><g transform="matrix(1.0298500061035156,0,0,1.1268199682235718,415,527.5)" opacity="1" style="display: block;"><path stroke-linecap="butt" stroke-linejoin="miter" fill-opacity="0" stroke-miterlimit="4" stroke="rgb(190,245,195)" stroke-opacity="1" stroke-width="43" d=" M67.25499725341797,-39.845001220703125 C67.25499725341797,-39.845001220703125 67.02400207519531,65.58100128173828 67.02400207519531,65.58100128173828 C67.02400207519531,87.12000274658203 49.722999572753906,83.28199768066406 28.18400001525879,83.28199768066406 C28.18400001525879,83.28199768066406 -28.326000213623047,83.28199768066406 -28.326000213623047,83.28199768066406 C-49.8650016784668,83.28199768066406 -67.48600006103516,87.12000274658203 -67.48600006103516,65.58100128173828 C-67.48600006103516,65.58100128173828 -67.25499725341797,-39.845001220703125 -67.25499725341797,-39.845001220703125 C-67.25499725341797,-61.38399887084961 -49.79399871826172,-78.84500122070312 -28.2549991607666,-78.84500122070312 C-28.2549991607666,-78.84500122070312 28.2549991607666,-78.84500122070312 28.2549991607666,-78.84500122070312 C49.79399871826172,-78.84500122070312 67.25499725341797,-61.38399887084961 67.25499725341797,-39.845001220703125z"></path></g><g transform="matrix(1,0,0,1,415,415)" opacity="1" style="display: block;"><g opacity="1" transform="matrix(1,0,0,1,0,0)"><path fill="rgb(19,72,53)" fill-opacity="1" d=" M7,-210 C7,-210 6,-210 6,-210 C6,-210 207,-35 207,-35 C207,-35 206,172 206,172 C206,172 206,172 206,172 C206,172 205,-38 205,-38 C205,-38 7,-210 7,-210z"></path><path stroke-linecap="round" stroke-linejoin="round" fill-opacity="0" stroke="rgb(190,245,195)" stroke-opacity="1" stroke-width="44" d=" M7,-210 C7,-210 6,-210 6,-210 C6,-210 207,-35 207,-35 C207,-35 206,172 206,172 C206,172 206,172 206,172 C206,172 205,-38 205,-38 C205,-38 7,-210 7,-210z"></path></g></g></g></g></svg>