<svg xmlns="http://www.w3.org/2000/svg" viewBox="0 0 360 360" width="360" height="360" preserveAspectRatio="xMidYMid slice" style="width: 100%; height: 100%; transform: translate3d(0px, 0px, 0px);"><defs><clipPath id="__lottie_element_2"><rect width="360" height="360" x="0" y="0"></rect></clipPath><clipPath id="__lottie_element_4"><path d="M0,0 L830,0 L830,820 L0,820z"></path></clipPath></defs><g clip-path="url(#__lottie_element_2)"><g class="ai" clip-path="url(#__lottie_element_4)" transform="matrix(0.44999998807907104,0,0,0.44999998807907104,-6.75,-4.5)" opacity="1" style="display: block;"><g transform="matrix(22.959999084472656,0,0,22.959999084472656,222.83560180664062,170.915283203125)" opacity="1" style="display: block;"><g opacity="1" transform="matrix(1,0,0,1,8.26099967956543,10.293000221252441)"><path fill="rgb(190,245,195)" fill-opacity="1" d=" M0.46000000834465027,-5.679999828338623 C0.46000000834465027,-5.679999828338623 -0.27000001072883606,0 -0.27000001072883606,0 C-0.27000001072883606,0 3.7300000190734863,0 3.7300000190734863,0 C3.7300000190734863,0 -1.437999963760376,6.185999870300293 -1.437999963760376,6.185999870300293 C-1.437999963760376,6.185999870300293 -0.6899999976158142,1 -0.6899999976158142,1 C-0.6899999976158142,1 -4.171000003814697,1 -4.171000003814697,1 C-4.171000003814697,1 0.46000000834465027,-5.679999828338623 0.46000000834465027,-5.679999828338623z M1,-10 C1,-10 -8,3 -8,3 C-8,3 -3,3 -3,3 C-3,3 -4,10 -4,10 C-4,10 -2.000999927520752,10 -2.000999927520752,10 C-2.000999927520752,10 8,-2 8,-2 C8,-2 2,-2 2,-2 C2,-2 3,-10 3,-10 C3,-10 1,-10 1,-10z"></path></g></g><g transform="matrix(1,0,0,1,415,410)" opacity="1" style="display: none;"><g opacity="1" transform="matrix(1,0,0,1,0,0)"><path fill="rgb(190,245,195)" fill-opacity="1" d=" M1,-165.5 C1,-165.5 -120,31.5 -120,31.5 C-120,31.5 -38,45.5 -38,45.5 C-38,45.5 -43,147 -43,147 C-43,147 117,-32 117,-32 C117,-32 9.5,-45.5 9.5,-45.5 C9.5,-45.5 1,-165.5 1,-165.5z"></path><path stroke-linecap="butt" stroke-linejoin="miter" fill-opacity="0" stroke-miterlimit="4" stroke="rgb(190,245,195)" stroke-opacity="1" stroke-width="10" d=" M1,-165.5 C1,-165.5 -120,31.5 -120,31.5 C-120,31.5 -38,45.5 -38,45.5 C-38,45.5 -43,147 -43,147 C-43,147 117,-32 117,-32 C117,-32 9.5,-45.5 9.5,-45.5 C9.5,-45.5 1,-165.5 1,-165.5z"></path></g></g><g transform="matrix(1,0,0,1,415,410)" opacity="1" style="display: none;"><g opacity="1" transform="matrix(1,0,0,1,0,0)"><path fill="rgb(190,245,195)" fill-opacity="1" d=" M1,-165.5 C1,-165.5 -120,31.5 -120,31.5 C-120,31.5 -38,45.5 -38,45.5 C-38,45.5 -43,147 -43,147 C-43,147 117,-32 117,-32 C117,-32 9.5,-45.5 9.5,-45.5 C9.5,-45.5 1,-165.5 1,-165.5z"></path><path stroke-linecap="butt" stroke-linejoin="miter" fill-opacity="0" stroke-miterlimit="4" stroke="rgb(190,245,195)" stroke-opacity="1" stroke-width="10" d=" M1,-165.5 C1,-165.5 -120,31.5 -120,31.5 C-120,31.5 -38,45.5 -38,45.5 C-38,45.5 -43,147 -43,147 C-43,147 117,-32 117,-32 C117,-32 9.5,-45.5 9.5,-45.5 C9.5,-45.5 1,-165.5 1,-165.5z"></path></g></g></g></g></svg>