<svg width="24" height="24" viewBox="0 0 24 24" fill="none" xmlns="http://www.w3.org/2000/svg">
<path fill-rule="evenodd" clip-rule="evenodd" d="M22 6C22 5.44772 21.5523 5 21 5H3C2.44772 5 2 5.44772 2 6C2 6.55228 2.44772 7 3 7H21C21.5523 7 22 6.55228 22 6ZM22 12C22 11.4477 21.5523 11 21 11H11C10.4477 11 10 11.4477 10 12C10 12.5523 10.4477 13 11 13H21C21.5523 13 22 12.5523 22 12ZM21 17C21.5523 17 22 17.4477 22 18C22 18.5523 21.5523 19 21 19H7C6.44771 19 6 18.5523 6 18C6 17.4477 6.44771 17 7 17H21Z" fill="white"/>
</svg>
