<svg width="56" height="40" fill="none" xmlns="http://www.w3.org/2000/svg"><path d="m7.444 26.431-1.94-1.94-1.12 1.119 1.941 1.94a2.358 2.358 0 0 0 1.681.697c.634 0 1.23-.245 1.677-.697l5.725-5.725-1.12-1.119-5.725 5.725a.813.813 0 0 1-1.119 0Z" fill="#217858"/><path d="M34.842 3.17h-2.378V0H30.88v3.17H7.128V0H5.543v3.17H3.165A3.165 3.165 0 0 0 0 6.335v25.336a3.165 3.165 0 0 0 3.165 3.166h16.412c.005-.265.015-.534.034-.793.024-.264.053-.533.096-.792H3.17c-.874 0-1.585-.711-1.585-1.585V11.08h34.837v10.346a10.447 10.447 0 0 1 1.585-.178V6.326c.005-1.74-1.417-3.156-3.165-3.156Zm1.585 6.335H1.585V6.34c0-.874.71-1.585 1.585-1.585h31.672c.874 0 1.585.71 1.585 1.585v3.165Z" fill="#217858"/><path d="M10.774 15.84H8.238v2.537h2.536V15.84ZM20.274 15.84h-2.536v2.537h2.536V15.84ZM29.78 15.84h-2.536v2.537h2.536V15.84ZM20.274 24.073h-2.536v2.536h2.536v-2.536ZM50.106 28.29c-.365-.389-.75-.764-1.157-1.114a16.938 16.938 0 0 0-10.418-4.213 29.79 29.79 0 0 0-1.605 0c-6.167.284-11.489 3.857-14.246 9.006-.139.264-.278.529-.403.802-.125.264-.24.529-.355.802A16.932 16.932 0 0 0 20.668 40h1.604a15.31 15.31 0 0 1 1.801-7.229 15.553 15.553 0 0 1 2.176-3.108l4.981 4.982A8.362 8.362 0 0 0 29.3 40h1.603a6.822 6.822 0 0 1 7.623-6.768 6.739 6.739 0 0 1 3.141 1.225c.442.312.84.673 1.186 1.08a6.756 6.756 0 0 1 1.672 4.458h1.604a8.392 8.392 0 0 0-2.137-5.595 7.653 7.653 0 0 0-1.177-1.09 8.321 8.321 0 0 0-4.29-1.691c-.004-.005-.004-.005-.009 0v-7.051c.005 0 .005.005.01 0a15.387 15.387 0 0 1 9.28 3.746 15.394 15.394 0 0 1 5.355 11.681h1.604a16.95 16.95 0 0 0-4.659-11.705Zm-14.918 3.674c-.63.197-1.225.471-1.777.803a8.307 8.307 0 0 0-1.043.734l-.735-.734-3.107-3.108-1.139-1.138a15.394 15.394 0 0 1 9.53-3.958v7.05a7.946 7.946 0 0 0-1.73.351Z" fill="#217858"/><path d="M51.34 24.78 36.13 39.994H38.4l14.078-14.082-1.139-1.134Z" fill="#217858"/></svg>