<svg width="37" height="30" fill="none" xmlns="http://www.w3.org/2000/svg"><path d="M12.015 2.172H7.812v1.027h4.203V2.172Z" fill="#797C9E"/><path d="M19.217 5.753h.521V2.055C19.738.918 18.805 0 17.655 0H3.072C1.922 0 .988.918.988 2.055v25.89C.988 29.08 1.922 30 3.072 30h14.583c1.15 0 2.083-.92 2.083-2.055v-3.698h-1.041v3.698c0 .565-.467 1.028-1.042 1.028H3.072a1.036 1.036 0 0 1-1.042-1.028V2.055c0-.567.467-1.028 1.042-1.028h14.583c.575 0 1.042.46 1.042 1.028v3.698h.52Z" fill="#797C9E"/><path d="M22.65 6.773h-9.658v16.439h12.329V9.445c-1.044-1.044-1.627-1.63-2.671-2.672Zm.684 2.135.927.93h-2.012V7.824l1.085 1.083ZM14.02 22.184V7.801h7.202v3.063h3.072v11.32H14.02Z" fill="#797C9E"/><path d="m6.105 14.485 1.687-1.687-.726-.728-1.837 1.837a1.53 1.53 0 0 0-.452 1.091c0 .411.16.798.452 1.09l1.837 1.836.726-.725-1.685-1.687h16.582v-1.027H6.105ZM21.65 16.57h-5.752v1.028h5.752V16.57ZM20.622 18.61h-4.724v1.027h4.724v-1.028Z" fill="#797C9E"/></svg>