<svg width="37" height="31" fill="none" xmlns="http://www.w3.org/2000/svg"><path d="M14.232 11.352H8.543v1.071h5.69v-1.071ZM19.947 12.43h-5.69V13.5h5.69V12.43ZM14.232 13.5H8.543v1.071h5.69V13.5ZM30.485 22.304a11.31 11.31 0 0 0-7.723-3.555 22.25 22.25 0 0 0-1.071 0c-4.114.188-7.665 2.573-9.504 6.006a11.365 11.365 0 0 0-.505 1.072 11.323 11.323 0 0 0-.838 4.285h1.071a10.237 10.237 0 0 1 1.505-5.357c.334-.549.72-1.063 1.148-1.538l3.324 3.323a5.573 5.573 0 0 0-1.288 3.572h1.071a4.548 4.548 0 0 1 5.087-4.513 4.489 4.489 0 0 1 2.096.817c.294.208.561.45.793.722a4.512 4.512 0 0 1 1.114 2.974h1.072c0-1.433-.54-2.74-1.427-3.733a5.169 5.169 0 0 0-.787-.728 5.538 5.538 0 0 0-2.867-1.127V19.82c.002 0 .004.002.006 0a10.254 10.254 0 0 1 6.191 2.499 10.27 10.27 0 0 1 3.572 7.794h1.072c0-3.02-1.183-5.77-3.112-7.81Zm-9.953 2.451a5.656 5.656 0 0 0-1.884 1.027l-.49-.491-2.073-2.072-.758-.759a10.256 10.256 0 0 1 6.357-2.64v4.704a5.292 5.292 0 0 0-1.152.231Z" fill="#797C9E"/><path d="M19.444.862a2.57 2.57 0 0 0-1.819-.753H5.076a2.142 2.142 0 0 0-2.142 2.143v21.429c0 1.183.96 2.143 2.142 2.143h5.456c.067-.18.137-.36.21-.536.077-.18.159-.36.244-.536h-5.91c-.589 0-1.071-.482-1.071-1.071V2.252c0-.591.48-1.071 1.071-1.071h12.318v2.582c0 .947.767 1.714 1.714 1.714h2.582v12.197c.176-.008.351-.012.53-.012h.006c.18 0 .358.004.535.012V5.246c0-.682-.27-1.335-.752-1.82L19.444.863Zm-.334 3.542a.642.642 0 0 1-.643-.643V1.397L19.972 2.9l1.502 1.505H19.11ZM31.309 19.953 21.16 30.103h1.515l9.392-9.391-.758-.759Z" fill="#797C9E"/><path d="M10.001 7.742a4.978 4.978 0 0 0-4.015 7.918L.633 21.013l.758.758 5.319-5.318a4.978 4.978 0 1 0 3.291-8.71Zm0 8.884a3.911 3.911 0 0 1-3.906-3.906 3.911 3.911 0 0 1 3.906-3.906 3.911 3.911 0 0 1 3.907 3.906A3.911 3.911 0 0 1 10 16.626Z" fill="#797C9E"/></svg>