<svg width="36" height="30" fill="none" xmlns="http://www.w3.org/2000/svg"><path d="M23.375 2.114h-1.594V0H20.72v2.114H4.78V0H3.72v2.114H2.125A2.119 2.119 0 0 0 0 4.227v16.91a2.12 2.12 0 0 0 2.125 2.113h16.24a7.197 7.197 0 0 1 .087-1.057H2.124a1.061 1.061 0 0 1-1.063-1.057V7.398h23.375v8.653c.175-.034.353-.06.532-.08.176-.02.352-.032.531-.038V4.227a2.119 2.119 0 0 0-2.125-2.113Zm1.063 4.227H1.063V4.227A1.06 1.06 0 0 1 2.125 3.17h21.25a1.06 1.06 0 0 1 1.063 1.057v2.114Z" fill="#797C9E"/><path d="M7.429 10.438h-1.71v1.71h1.71v-1.71ZM13.843 10.438h-1.71v1.71h1.71v-1.71ZM20.257 10.438h-1.71v1.71h1.71v-1.71ZM13.843 16h-1.71v1.71h1.71V16ZM20.257 16h-1.71v1.71h1.71V16ZM26.457 26.458l-1.954-2.281h-.637c-.064 0-.1-.037-.1-.1v-.727c0-.065.036-.1.1-.1h1.246c.646 0 1.018-.247 1.118-.747h-2.364c-.064 0-.1-.045-.1-.1v-.473c0-.064.036-.1.1-.1h2.364c-.1-.5-.472-.746-1.118-.746h-1.246c-.064 0-.1-.036-.1-.1v-.727c0-.064.036-.1.1-.1h4.472c.064 0 .1.036.1.1v.472c0 .053-.036.092-.1.092h-1.546v.045c.364.2.59.536.674.964h.872c.064 0 .1.036.1.1v.473c0 .055-.036.1-.1.1h-.872c-.129.808-.719 1.364-1.636 1.537l2.018 2.353c.056.065.02.129-.064.129h-1.21c-.053-.002-.08-.02-.117-.064Z" fill="#797C9E"/><path d="M26.1 16.922a6.412 6.412 0 1 0 0 12.825 6.412 6.412 0 1 0 0-12.825Zm0 11.735a5.323 5.323 0 1 1 .001-10.646 5.323 5.323 0 0 1-.001 10.646ZM5.182 17.583l-1.31-1.31-.755.757 1.308 1.308c.304.303.706.47 1.135.47.428 0 .83-.167 1.133-.47l3.865-3.863-.757-.756-3.864 3.864a.547.547 0 0 1-.755 0Z" fill="#797C9E"/></svg>