<svg width="23" height="16" viewBox="0 0 23 16" fill="none" xmlns="http://www.w3.org/2000/svg">
<path d="M14.6525 3.78002C14.2217 2.74013 14 1.62557 14 0.5H16.2046C16.2046 1.33607 16.3693 2.16396 16.6893 2.93638C17.0092 3.70881 17.4782 4.41066 18.0694 5.00185C18.6606 5.59304 19.3625 6.062 20.135 6.38195C20.7749 6.647 21.4528 6.80549 22.142 6.85208H22.572V9.14792H21.8428C21.2533 9.21553 20.6749 9.365 20.1246 9.59296C19.3488 9.91428 18.6439 10.3852 18.0502 10.9789C17.4565 11.5727 16.9855 12.2775 16.6642 13.0532C16.3428 13.8289 16.1775 14.6604 16.1775 15.5H14C14 14.3744 14.2217 13.2599 14.6525 12.22C15.0832 11.1801 15.7146 10.2352 16.5105 9.43931C16.6103 9.33957 16.7123 9.24242 16.8167 9.14792H0V6.85208H16.8167C16.7123 6.75758 16.6103 6.66043 16.5105 6.56069C15.7146 5.76479 15.0832 4.81992 14.6525 3.78002Z" fill="#144835"/>
</svg>
