<svg width="56" height="56" fill="none" xmlns="http://www.w3.org/2000/svg"><path d="M44.2 28.64c0 9.062-7.371 16.437-16.437 16.437-9.065 0-16.436-7.37-16.436-16.436 0-9.061 7.371-16.436 16.436-16.436 9.066 0 16.437 7.375 16.437 16.436Zm-1.605 0c0-8.173-6.654-14.826-14.827-14.826-8.174 0-14.827 6.653-14.827 14.827s6.653 14.827 14.827 14.827c8.173 0 14.827-6.653 14.827-14.827Zm-5.335 7.87c0 .444-.36.803-.803.803H19.078a.802.802 0 0 1-.802-.802c0-4.106 2.619-7.608 6.273-8.93a5.494 5.494 0 0 1-2.281-4.457c0-3.033 2.467-5.5 5.5-5.5s5.5 2.467 5.5 5.5a5.5 5.5 0 0 1-2.282 4.457c3.655 1.322 6.274 4.824 6.274 8.93Zm-9.497-9.491h.005a3.897 3.897 0 0 0 3.89-3.89 3.894 3.894 0 0 0-3.89-3.891 3.894 3.894 0 0 0-3.89 3.89 3.893 3.893 0 0 0 3.885 3.89Zm7.849 8.689c-.406-3.97-3.768-7.08-7.844-7.08-4.077 0-7.44 3.11-7.845 7.08h15.689ZM14.077 8.897a23.88 23.88 0 0 1 13.69-4.283c6.041 0 11.774 2.23 16.213 6.294l1.179-1.103A25.488 25.488 0 0 0 27.768 3 25.472 25.472 0 0 0 13.16 7.57a.806.806 0 0 0-.202 1.12.8.8 0 0 0 1.119.207Zm29.857 2.036-4.051-.067-.034 1.744 4.41.076c.701.013 1.36-.25 1.867-.735a2.578 2.578 0 0 0 .794-1.837l.076-4.41-1.74-.03-.072 4.047m-3.231 37.916a23.88 23.88 0 0 1-13.691 4.284c-6.04 0-11.773-2.23-16.213-6.294l-1.178 1.102a25.488 25.488 0 0 0 17.39 6.805c5.256 0 10.304-1.58 14.608-4.57a.806.806 0 0 0-.916-1.327Zm-29.857-2.032 4.05.068.035-1.745-4.41-.076a2.609 2.609 0 0 0-1.868.735 2.579 2.579 0 0 0-.794 1.838l-.076 4.41 1.74.03.072-4.047m37.258-31.944a23.88 23.88 0 0 1 4.283 13.69c0 6.041-2.23 11.774-6.294 16.213l1.103 1.179A25.488 25.488 0 0 0 54 28.565c0-5.255-1.58-10.303-4.57-14.607a.806.806 0 0 0-1.12-.203.8.8 0 0 0-.207 1.12Zm-2.036 29.857.068-4.051-1.745-.034-.076 4.41c-.013.701.25 1.36.735 1.867a2.579 2.579 0 0 0 1.837.794l4.41.077.03-1.74-4.047-.073M7.897 42.234a23.88 23.88 0 0 1-4.283-13.69c0-6.04 2.23-11.773 6.294-16.213l-1.103-1.178A25.488 25.488 0 0 0 2 28.543C2 33.8 3.58 38.848 6.57 43.152a.806.806 0 0 0 1.12.203.8.8 0 0 0 .207-1.12Zm2.036-29.856-.068 4.05 1.745.035.076-4.41a2.609 2.609 0 0 0-.735-1.868 2.579 2.579 0 0 0-1.837-.794l-4.41-.076-.03 1.74 4.047.072" fill="#7F7F7F"/><path d="m43.934 10.933-4.051-.067-.034 1.744 4.41.076c.701.013 1.36-.25 1.867-.735a2.578 2.578 0 0 0 .794-1.837l.076-4.41-1.74-.03-.072 4.047M12.096 45.605l4.05.068.035-1.745-4.41-.076a2.609 2.609 0 0 0-1.868.735 2.579 2.579 0 0 0-.794 1.838l-.076 4.41 1.74.03.072-4.047m35.222-2.087.068-4.051-1.745-.034-.076 4.41c-.013.701.25 1.36.735 1.867a2.579 2.579 0 0 0 1.837.794l4.41.077.03-1.74-4.047-.073M9.933 12.378l-.068 4.05 1.745.034.076-4.41a2.609 2.609 0 0 0-.735-1.867 2.579 2.579 0 0 0-1.837-.794l-4.41-.076-.03 1.74 4.047.072M44.2 28.641c0 9.06-7.371 16.436-16.437 16.436-9.065 0-16.436-7.37-16.436-16.436 0-9.061 7.371-16.436 16.436-16.436 9.066 0 16.437 7.375 16.437 16.436Zm-1.605 0c0-8.174-6.654-14.827-14.827-14.827-8.174 0-14.827 6.653-14.827 14.827s6.653 14.827 14.827 14.827c8.173 0 14.827-6.653 14.827-14.827Zm-5.335 7.87c0 .443-.36.802-.803.802H19.078a.802.802 0 0 1-.802-.802c0-4.106 2.619-7.608 6.273-8.93a5.494 5.494 0 0 1-2.281-4.457c0-3.033 2.467-5.5 5.5-5.5s5.5 2.467 5.5 5.5a5.5 5.5 0 0 1-2.282 4.457c3.655 1.322 6.274 4.824 6.274 8.93Zm-9.497-9.492h.005a3.897 3.897 0 0 0 3.89-3.89 3.894 3.894 0 0 0-3.89-3.891 3.894 3.894 0 0 0-3.89 3.89 3.893 3.893 0 0 0 3.885 3.89Zm7.849 8.689c-.406-3.97-3.768-7.08-7.844-7.08-4.077 0-7.44 3.11-7.845 7.08h15.689ZM14.077 8.897a23.88 23.88 0 0 1 13.69-4.283c6.041 0 11.774 2.23 16.213 6.294l1.179-1.103A25.488 25.488 0 0 0 27.768 3 25.472 25.472 0 0 0 13.16 7.57a.806.806 0 0 0-.202 1.12.8.8 0 0 0 1.119.207Zm27.876 38.74a23.88 23.88 0 0 1-13.691 4.284c-6.04 0-11.773-2.23-16.213-6.294l-1.178 1.102a25.488 25.488 0 0 0 17.39 6.805c5.256 0 10.304-1.58 14.608-4.57a.806.806 0 0 0-.916-1.327Zm6.15-32.763a23.88 23.88 0 0 1 4.283 13.69c0 6.041-2.23 11.774-6.294 16.213l1.103 1.179A25.488 25.488 0 0 0 54 28.565c0-5.255-1.58-10.303-4.57-14.607a.806.806 0 0 0-1.12-.203.8.8 0 0 0-.207 1.12ZM7.897 42.234a23.88 23.88 0 0 1-4.283-13.69c0-6.04 2.23-11.773 6.294-16.213l-1.103-1.178A25.488 25.488 0 0 0 2 28.543C2 33.8 3.58 38.848 6.57 43.152a.806.806 0 0 0 1.12.203.8.8 0 0 0 .207-1.12Z" stroke="#7F7F7F" stroke-width=".422" stroke-miterlimit="10"/></svg>