<svg width="151" height="36" fill="none" xmlns="http://www.w3.org/2000/svg"><path fill-rule="evenodd" clip-rule="evenodd" d="M36 18c0 9.941-8.059 18-18 18S0 27.941 0 18 8.059 0 18 0s18 8.059 18 18zM23.865 9.34c.913 0 1.74.533 2.12 1.362l-.001.002 6.783 14.834h-4.973L23.28 14.905l-4.513 10.633h-4.973l-3.06-7.209-3.061 7.209H3.227l5.119-11.192a1.868 1.868 0 0 1 1.697-1.09h1.382c.73 0 1.393.425 1.697 1.09l2.896 6.33 4.561-9.974a2.33 2.33 0 0 1 2.12-1.362h1.166z" fill="#fff"/><path d="M60.961 19.363c0-3.238 2.268-5.525 5.581-5.525 3.314 0 5.639 2.286 5.639 5.525 0 3.24-2.286 5.527-5.639 5.527s-5.581-2.287-5.581-5.527zm5.581 3.088c1.467 0 2.876-1.068 2.876-3.088s-1.409-3.087-2.876-3.087c-1.467 0-2.8 1.048-2.8 3.087 0 2.04 1.353 3.088 2.8 3.088zm7.259-8.423h2.743v.952c.457-.648 1.429-1.18 2.591-1.18 2.344 0 3.735 1.562 3.735 4.134v6.725h-2.743v-6.516c0-1.238-.743-2.04-1.753-2.04-1.01 0-1.828.724-1.828 2.058v6.496h-2.743v-10.63l-.002.001zm10.63 5.316c0-3.258 2.38-5.544 5.58-5.544 2.821 0 5.145 1.829 5.43 4.534.058.59.058 1.258 0 1.829H87.29c.286 1.675 1.486 2.477 2.78 2.477 1.01 0 2.04-.495 2.382-1.43h2.82c-.4 2.135-2.42 3.678-5.258 3.678-3.22 0-5.58-2.286-5.58-5.544h-.003zm8.153-1.181c-.287-1.447-1.447-2.115-2.515-2.115-1.2 0-2.323.686-2.705 2.115h5.22zm14.708-4.135h3.009l2.268 7.089 2.591-7.089h2.801l-3.749 9.917c-.164.43-.576.716-1.037.716h-1.17a1.11 1.11 0 0 1-1.038-.722l-3.675-9.909v-.002zm11.868 0h2.742V24.66h-2.742V14.03zm1.295-4.534c.915 0 1.658.761 1.658 1.676 0 .914-.743 1.696-1.658 1.696a1.711 1.711 0 0 1-1.695-1.696c0-.934.761-1.676 1.695-1.676zm3.067 9.85c0-3.258 2.381-5.544 5.582-5.544 2.82 0 5.143 1.829 5.43 4.534a9.8 9.8 0 0 1 0 1.829h-8.154c.287 1.675 1.487 2.477 2.781 2.477 1.01 0 2.039-.495 2.381-1.43h2.821c-.4 2.135-2.419 3.678-5.258 3.678-3.22 0-5.581-2.286-5.581-5.544h-.002zm8.153-1.181c-.286-1.447-1.447-2.115-2.514-2.115-1.2 0-2.323.686-2.705 2.115h5.219zM60.56 24.659h-2.83l-1.403-6.591-2.333 6.591h-2.678l-2.047-6.591-1.598 6.591h-2.678l2.529-9.8c.126-.49.567-.832 1.073-.832h1.155c.472 0 .891.298 1.046.743l2.07 5.933 2.161-5.946a1.108 1.108 0 0 1 1.04-.729h1.042c.512 0 .956.35 1.077.846l2.372 9.785h.002zm39.225-10.63v6.287c0 .61.158 1.105.477 1.486.316.382.756.571 1.313.571.558 0 .96-.184 1.277-.553.316-.369.476-.876.476-1.524v-6.268h2.763v10.48c0 1.269-.327 2.248-.981 2.934-.653.686-1.686 1.03-3.095 1.03h-3.886v-2.457h3.315c1.309 0 1.962-.604 1.962-1.81v-.78c-.229.33-.574.622-1.039.876-.464.254-.993.382-1.591.382-1.193 0-2.114-.37-2.762-1.106-.648-.736-.972-1.753-.972-3.049v-6.496h2.743v-.004zm35.398 0h2.83l1.403 6.59 2.333-6.59h2.678l2.046 6.59 1.599-6.59h2.678l-2.529 9.8c-.126.49-.567.832-1.073.832h-1.155c-.472 0-.891-.299-1.046-.744l-2.07-5.932-2.161 5.945a1.108 1.108 0 0 1-1.04.73h-1.043c-.511 0-.955-.35-1.076-.847l-2.372-9.785h-.002z" fill="#fff"/></svg>