<?xml version="1.0" encoding="utf-8"?>
<!-- Generator: Adobe Illustrator 27.9.0, SVG Export Plug-In . SVG Version: 6.00 Build 0)  -->
<svg version="1.1" id="Layer_1" xmlns="http://www.w3.org/2000/svg" xmlns:xlink="http://www.w3.org/1999/xlink" x="0px" y="0px"
	 viewBox="0 0 452.7 136.9" style="enable-background:new 0 0 452.7 136.9;" xml:space="preserve">
<style type="text/css">
	.st0{fill:#FFFFFF;}
	.st1{font-family:'KobenhavnW03-Bold';}
	.st2{font-size:64.1538px;}
</style>
<polygon class="st0" points="2099.8,-104.2 2099.7,-73.3 2062.5,-73.3 "/>
<g>
	<text transform="matrix(1 0 0 1 115.8383 97.2846)" class="st0 st1 st2">DigitSathi</text>
</g>
<path class="st0" d="M83.6,42.4C83.6,42.4,83.6,42.4,83.6,42.4c-6-6.6-14-10-21.1-11.8c0,0,0,0,0,0c0,0,0,0,0,0
	c-9.3-2.3-17.2-1.8-17.2-1.8l0,0c-4.6,0-9.1-0.1-13.5,0.1c-11.4,0.4-19.9,9.1-19.8,20.2c0,11.2,8.5,19.8,19.9,20.1
	c5.1,0.2,10.1,0.1,15.2,0c4.5-0.1,8.1,1.3,8.3,6.2c0.1,5-3.5,6.5-8,6.4c-4.1-0.1-8.1,0-12.5,0v4H36c6.5,0,6.4,10,0,10h-1.1V96
	c5.5,0,10.4,0.2,15.2,0c11-0.5,19.3-9.2,19.4-20.1c0-11.3-8.3-20-19.6-20.4c-5.2-0.2-10.5,0-15.7-0.1c-4.4,0-8.1-1.4-7.9-6.5
	c0.1-4.8,3.6-6,7.9-5.9c5.5,0.1,11.1,0,16.6,0v0c7.8,0.5,14.6,3.8,18.6,6.2c0.3,0.2,0.6,0.4,1,0.6c0.6,0.3,1.2,0.7,1.7,1.1
	c0.2,0.1,0.4,0.3,0.5,0.4c9.5,7.1,12.6,20.2,9.4,31.7c-3.4,12.4-13.9,22.2-26.1,23.1c-6.5,0.5-13.1,0.4-20,0.3
	c-0.4,0.1-0.8,0.2-1.2,0.2h-0.4v14.2c6.7,0,13.4,0,20-0.3c20.6-1,37.9-16.4,41.9-36.2C99.2,68.6,94.3,53.1,83.6,42.4z"/>
<polygon class="st0" points="42.6,96.1 34.8,96 34.8,82.3 47.9,89.6 "/>
</svg>
